<svg width="134" height="113" viewBox="0 0 134 113" fill="none" xmlns="http://www.w3.org/2000/svg">
<mask id="path-1-outside-1_453_108" maskUnits="userSpaceOnUse" x="11.1643" y="22.4598" width="112" height="91" fill="black">
<rect fill="white" x="11.1643" y="22.4598" width="112" height="91"/>
<path d="M93.8882 80.6124C93.8882 77.588 92.746 74.8033 90.8853 72.701L91.0327 72.0739C91.8433 68.6069 89.2272 65.3059 85.6901 65.3059H73.9915V60.6401C77.2892 59.2017 79.8684 56.4355 81.0843 53.0238C81.3423 53.0791 81.6002 53.0975 81.8581 53.0975C84.8794 53.0975 87.3297 50.6448 87.3297 47.6019C87.3297 44.5591 84.8794 42.1248 81.8581 42.1248V41.1843C82.3739 40.9261 82.8345 40.5572 83.2398 40.0778C86.0954 36.7398 85.0084 28.6071 84.9716 28.2751C84.7505 26.6707 83.1845 23.6278 78.7262 23.5172C73.9178 23.3881 46.5598 23.5172 46.2835 23.5172L45.6571 25.1032L49.1575 28.4964L47.2231 33.5494L47.1862 34.158C47.2968 34.4531 49.2864 40.5388 53.7079 41.4609V42.1617C50.9261 42.4198 48.7522 44.7619 48.7522 47.6019C48.7522 50.6448 51.2208 53.0975 54.2422 53.0975C54.3343 53.0975 54.4264 53.0975 54.5001 53.0791C55.6607 56.3064 58.0557 58.9435 61.1139 60.4373V65.3059H49.6733C46.1914 65.3059 43.5938 68.4963 44.2938 71.908L44.4228 72.5719C42.4884 74.6926 41.3093 77.5142 41.3093 80.6124V93.6691H12.1643V104.55H17.4701V112H117.212V104.55H122.61V93.6691H93.8882V80.6124ZM56.0292 51.8066C55.9371 51.5115 55.845 51.2165 55.8081 50.903C55.6239 50.1653 55.5502 49.3908 55.5502 48.5978V41.5531C56.3608 41.5531 57.3188 41.5715 58.4242 41.6269C59.4743 41.6822 60.6533 41.7191 61.8508 41.7191C66.2171 41.7191 71.1912 41.092 74.0468 37.3115C74.3416 38.1967 74.839 39.1741 75.6496 39.9671C76.7734 41.0552 78.2472 41.5715 80.0158 41.5715V48.5978C80.0158 49.2986 79.9605 49.9809 79.8131 50.6264C79.7763 50.9583 79.7026 51.2718 79.5921 51.5669C79.5368 51.8804 79.4447 52.1754 79.3157 52.4705C78.3577 55.1077 76.4418 57.3022 73.9915 58.5931C73.5494 58.8329 73.1072 59.0357 72.6282 59.2017C71.4123 59.6627 70.0859 59.9025 68.7226 59.9025H66.8434C65.4617 59.9025 64.1353 59.6627 62.9194 59.2017C62.293 58.962 61.685 58.6853 61.1139 58.3534C58.9584 57.0625 57.2451 55.0708 56.324 52.6918C56.2134 52.4152 56.1029 52.1201 56.0292 51.8066ZM62.9562 61.1565C64.1721 61.5438 65.4801 61.7466 66.8434 61.7466H68.7226C69.9016 61.7466 71.0623 61.5991 72.1492 61.2856V64.937H62.9562V61.1565ZM85.4874 47.6019C85.4874 49.6121 83.8662 51.2534 81.8581 51.2534C81.766 51.2534 81.6739 51.2534 81.5817 51.2349C81.766 50.3866 81.8581 49.5014 81.8581 48.5978V43.9689C83.8662 43.9689 85.4874 45.5918 85.4874 47.6019ZM49.0469 33.8998L51.1103 28.5886L50.8892 27.6112L48.5495 25.3429C55.2554 25.3245 74.71 25.2507 78.6709 25.3614C82.5766 25.4536 83.0924 28.2014 83.1477 28.5149C83.424 30.6357 83.7556 36.5923 81.8581 38.8606H81.8397C81.5817 39.1926 81.2686 39.4139 80.9369 39.5429C80.679 39.6536 80.3843 39.7274 80.0895 39.7274H80.0158C78.7078 39.7642 77.6945 39.377 76.9392 38.6578C75.9628 37.6803 75.6127 36.2603 75.4838 35.412C75.4101 34.9694 75.4101 34.6744 75.4101 34.6559L74.581 34.49L73.6415 34.3055C73.6415 34.3055 73.5862 34.4346 73.5494 34.49C73.4204 34.8219 73.273 35.117 73.0888 35.412C70.2332 40.2806 63.5089 39.9855 58.4979 39.7827C57.5583 39.7458 56.7109 39.7089 55.9555 39.7089H55.5502C55.3844 39.7274 55.2002 39.7274 55.0528 39.7274C54.9054 39.7274 54.758 39.7274 54.6291 39.7089C54.2975 39.7089 54.0027 39.6536 53.7079 39.5429C50.9445 38.7315 49.4338 34.9879 49.0469 33.8998ZM50.5945 47.6019C50.5945 45.7762 51.9577 44.264 53.7079 44.0058V48.5978C53.7079 49.5014 53.8 50.3866 53.9843 51.2349C52.0867 51.1058 50.5945 49.5199 50.5945 47.6019ZM92.0459 80.6124V93.6691H86.9797V89.1877L90.3326 74.9877C91.4196 76.5921 92.0459 78.5469 92.0459 80.6124ZM120.767 102.705H14.0066V95.5132H120.767V102.705ZM115.369 110.156H19.3124V104.55H115.369V110.156ZM46.8362 68.4963C47.5363 67.6479 48.5679 67.15 49.6733 67.15H85.6901C86.7954 67.15 87.8455 67.6479 88.5456 68.5331C89.1536 69.2893 89.4115 70.2298 89.3009 71.1887C89.2825 71.3363 89.2641 71.4838 89.2272 71.6498L89.0983 72.203L88.8588 73.2542L85.5427 87.2883H49.3417L46.4493 73.1804L46.2282 72.1108L46.1177 71.5391C46.0808 71.3916 46.0624 71.2441 46.0624 71.0965C45.9703 70.156 46.2467 69.2339 46.8546 68.4963H46.8362ZM49.6733 89.2062H85.1374V93.0051H49.6733V89.2062ZM43.1516 80.6124C43.1516 78.5101 43.7964 76.5368 44.9018 74.9139L47.831 89.2062V93.6691H43.1516V80.6124Z"/>
</mask>
<path d="M93.8882 80.6124C93.8882 77.588 92.746 74.8033 90.8853 72.701L91.0327 72.0739C91.8433 68.6069 89.2272 65.3059 85.6901 65.3059H73.9915V60.6401C77.2892 59.2017 79.8684 56.4355 81.0843 53.0238C81.3423 53.0791 81.6002 53.0975 81.8581 53.0975C84.8794 53.0975 87.3297 50.6448 87.3297 47.6019C87.3297 44.5591 84.8794 42.1248 81.8581 42.1248V41.1843C82.3739 40.9261 82.8345 40.5572 83.2398 40.0778C86.0954 36.7398 85.0084 28.6071 84.9716 28.2751C84.7505 26.6707 83.1845 23.6278 78.7262 23.5172C73.9178 23.3881 46.5598 23.5172 46.2835 23.5172L45.6571 25.1032L49.1575 28.4964L47.2231 33.5494L47.1862 34.158C47.2968 34.4531 49.2864 40.5388 53.7079 41.4609V42.1617C50.9261 42.4198 48.7522 44.7619 48.7522 47.6019C48.7522 50.6448 51.2208 53.0975 54.2422 53.0975C54.3343 53.0975 54.4264 53.0975 54.5001 53.0791C55.6607 56.3064 58.0557 58.9435 61.1139 60.4373V65.3059H49.6733C46.1914 65.3059 43.5938 68.4963 44.2938 71.908L44.4228 72.5719C42.4884 74.6926 41.3093 77.5142 41.3093 80.6124V93.6691H12.1643V104.55H17.4701V112H117.212V104.55H122.61V93.6691H93.8882V80.6124ZM56.0292 51.8066C55.9371 51.5115 55.845 51.2165 55.8081 50.903C55.6239 50.1653 55.5502 49.3908 55.5502 48.5978V41.5531C56.3608 41.5531 57.3188 41.5715 58.4242 41.6269C59.4743 41.6822 60.6533 41.7191 61.8508 41.7191C66.2171 41.7191 71.1912 41.092 74.0468 37.3115C74.3416 38.1967 74.839 39.1741 75.6496 39.9671C76.7734 41.0552 78.2472 41.5715 80.0158 41.5715V48.5978C80.0158 49.2986 79.9605 49.9809 79.8131 50.6264C79.7763 50.9583 79.7026 51.2718 79.5921 51.5669C79.5368 51.8804 79.4447 52.1754 79.3157 52.4705C78.3577 55.1077 76.4418 57.3022 73.9915 58.5931C73.5494 58.8329 73.1072 59.0357 72.6282 59.2017C71.4123 59.6627 70.0859 59.9025 68.7226 59.9025H66.8434C65.4617 59.9025 64.1353 59.6627 62.9194 59.2017C62.293 58.962 61.685 58.6853 61.1139 58.3534C58.9584 57.0625 57.2451 55.0708 56.324 52.6918C56.2134 52.4152 56.1029 52.1201 56.0292 51.8066ZM62.9562 61.1565C64.1721 61.5438 65.4801 61.7466 66.8434 61.7466H68.7226C69.9016 61.7466 71.0623 61.5991 72.1492 61.2856V64.937H62.9562V61.1565ZM85.4874 47.6019C85.4874 49.6121 83.8662 51.2534 81.8581 51.2534C81.766 51.2534 81.6739 51.2534 81.5817 51.2349C81.766 50.3866 81.8581 49.5014 81.8581 48.5978V43.9689C83.8662 43.9689 85.4874 45.5918 85.4874 47.6019ZM49.0469 33.8998L51.1103 28.5886L50.8892 27.6112L48.5495 25.3429C55.2554 25.3245 74.71 25.2507 78.6709 25.3614C82.5766 25.4536 83.0924 28.2014 83.1477 28.5149C83.424 30.6357 83.7556 36.5923 81.8581 38.8606H81.8397C81.5817 39.1926 81.2686 39.4139 80.9369 39.5429C80.679 39.6536 80.3843 39.7274 80.0895 39.7274H80.0158C78.7078 39.7642 77.6945 39.377 76.9392 38.6578C75.9628 37.6803 75.6127 36.2603 75.4838 35.412C75.4101 34.9694 75.4101 34.6744 75.4101 34.6559L74.581 34.49L73.6415 34.3055C73.6415 34.3055 73.5862 34.4346 73.5494 34.49C73.4204 34.8219 73.273 35.117 73.0888 35.412C70.2332 40.2806 63.5089 39.9855 58.4979 39.7827C57.5583 39.7458 56.7109 39.7089 55.9555 39.7089H55.5502C55.3844 39.7274 55.2002 39.7274 55.0528 39.7274C54.9054 39.7274 54.758 39.7274 54.6291 39.7089C54.2975 39.7089 54.0027 39.6536 53.7079 39.5429C50.9445 38.7315 49.4338 34.9879 49.0469 33.8998ZM50.5945 47.6019C50.5945 45.7762 51.9577 44.264 53.7079 44.0058V48.5978C53.7079 49.5014 53.8 50.3866 53.9843 51.2349C52.0867 51.1058 50.5945 49.5199 50.5945 47.6019ZM92.0459 80.6124V93.6691H86.9797V89.1877L90.3326 74.9877C91.4196 76.5921 92.0459 78.5469 92.0459 80.6124ZM120.767 102.705H14.0066V95.5132H120.767V102.705ZM115.369 110.156H19.3124V104.55H115.369V110.156ZM46.8362 68.4963C47.5363 67.6479 48.5679 67.15 49.6733 67.15H85.6901C86.7954 67.15 87.8455 67.6479 88.5456 68.5331C89.1536 69.2893 89.4115 70.2298 89.3009 71.1887C89.2825 71.3363 89.2641 71.4838 89.2272 71.6498L89.0983 72.203L88.8588 73.2542L85.5427 87.2883H49.3417L46.4493 73.1804L46.2282 72.1108L46.1177 71.5391C46.0808 71.3916 46.0624 71.2441 46.0624 71.0965C45.9703 70.156 46.2467 69.2339 46.8546 68.4963H46.8362ZM49.6733 89.2062H85.1374V93.0051H49.6733V89.2062ZM43.1516 80.6124C43.1516 78.5101 43.7964 76.5368 44.9018 74.9139L47.831 89.2062V93.6691H43.1516V80.6124Z" fill="#3875F6"/>
<path d="M93.8882 80.6124C93.8882 77.588 92.746 74.8033 90.8853 72.701L91.0327 72.0739C91.8433 68.6069 89.2272 65.3059 85.6901 65.3059H73.9915V60.6401C77.2892 59.2017 79.8684 56.4355 81.0843 53.0238C81.3423 53.0791 81.6002 53.0975 81.8581 53.0975C84.8794 53.0975 87.3297 50.6448 87.3297 47.6019C87.3297 44.5591 84.8794 42.1248 81.8581 42.1248V41.1843C82.3739 40.9261 82.8345 40.5572 83.2398 40.0778C86.0954 36.7398 85.0084 28.6071 84.9716 28.2751C84.7505 26.6707 83.1845 23.6278 78.7262 23.5172C73.9178 23.3881 46.5598 23.5172 46.2835 23.5172L45.6571 25.1032L49.1575 28.4964L47.2231 33.5494L47.1862 34.158C47.2968 34.4531 49.2864 40.5388 53.7079 41.4609V42.1617C50.9261 42.4198 48.7522 44.7619 48.7522 47.6019C48.7522 50.6448 51.2208 53.0975 54.2422 53.0975C54.3343 53.0975 54.4264 53.0975 54.5001 53.0791C55.6607 56.3064 58.0557 58.9435 61.1139 60.4373V65.3059H49.6733C46.1914 65.3059 43.5938 68.4963 44.2938 71.908L44.4228 72.5719C42.4884 74.6926 41.3093 77.5142 41.3093 80.6124V93.6691H12.1643V104.55H17.4701V112H117.212V104.55H122.61V93.6691H93.8882V80.6124ZM56.0292 51.8066C55.9371 51.5115 55.845 51.2165 55.8081 50.903C55.6239 50.1653 55.5502 49.3908 55.5502 48.5978V41.5531C56.3608 41.5531 57.3188 41.5715 58.4242 41.6269C59.4743 41.6822 60.6533 41.7191 61.8508 41.7191C66.2171 41.7191 71.1912 41.092 74.0468 37.3115C74.3416 38.1967 74.839 39.1741 75.6496 39.9671C76.7734 41.0552 78.2472 41.5715 80.0158 41.5715V48.5978C80.0158 49.2986 79.9605 49.9809 79.8131 50.6264C79.7763 50.9583 79.7026 51.2718 79.5921 51.5669C79.5368 51.8804 79.4447 52.1754 79.3157 52.4705C78.3577 55.1077 76.4418 57.3022 73.9915 58.5931C73.5494 58.8329 73.1072 59.0357 72.6282 59.2017C71.4123 59.6627 70.0859 59.9025 68.7226 59.9025H66.8434C65.4617 59.9025 64.1353 59.6627 62.9194 59.2017C62.293 58.962 61.685 58.6853 61.1139 58.3534C58.9584 57.0625 57.2451 55.0708 56.324 52.6918C56.2134 52.4152 56.1029 52.1201 56.0292 51.8066ZM62.9562 61.1565C64.1721 61.5438 65.4801 61.7466 66.8434 61.7466H68.7226C69.9016 61.7466 71.0623 61.5991 72.1492 61.2856V64.937H62.9562V61.1565ZM85.4874 47.6019C85.4874 49.6121 83.8662 51.2534 81.8581 51.2534C81.766 51.2534 81.6739 51.2534 81.5817 51.2349C81.766 50.3866 81.8581 49.5014 81.8581 48.5978V43.9689C83.8662 43.9689 85.4874 45.5918 85.4874 47.6019ZM49.0469 33.8998L51.1103 28.5886L50.8892 27.6112L48.5495 25.3429C55.2554 25.3245 74.71 25.2507 78.6709 25.3614C82.5766 25.4536 83.0924 28.2014 83.1477 28.5149C83.424 30.6357 83.7556 36.5923 81.8581 38.8606H81.8397C81.5817 39.1926 81.2686 39.4139 80.9369 39.5429C80.679 39.6536 80.3843 39.7274 80.0895 39.7274H80.0158C78.7078 39.7642 77.6945 39.377 76.9392 38.6578C75.9628 37.6803 75.6127 36.2603 75.4838 35.412C75.4101 34.9694 75.4101 34.6744 75.4101 34.6559L74.581 34.49L73.6415 34.3055C73.6415 34.3055 73.5862 34.4346 73.5494 34.49C73.4204 34.8219 73.273 35.117 73.0888 35.412C70.2332 40.2806 63.5089 39.9855 58.4979 39.7827C57.5583 39.7458 56.7109 39.7089 55.9555 39.7089H55.5502C55.3844 39.7274 55.2002 39.7274 55.0528 39.7274C54.9054 39.7274 54.758 39.7274 54.6291 39.7089C54.2975 39.7089 54.0027 39.6536 53.7079 39.5429C50.9445 38.7315 49.4338 34.9879 49.0469 33.8998ZM50.5945 47.6019C50.5945 45.7762 51.9577 44.264 53.7079 44.0058V48.5978C53.7079 49.5014 53.8 50.3866 53.9843 51.2349C52.0867 51.1058 50.5945 49.5199 50.5945 47.6019ZM92.0459 80.6124V93.6691H86.9797V89.1877L90.3326 74.9877C91.4196 76.5921 92.0459 78.5469 92.0459 80.6124ZM120.767 102.705H14.0066V95.5132H120.767V102.705ZM115.369 110.156H19.3124V104.55H115.369V110.156ZM46.8362 68.4963C47.5363 67.6479 48.5679 67.15 49.6733 67.15H85.6901C86.7954 67.15 87.8455 67.6479 88.5456 68.5331C89.1536 69.2893 89.4115 70.2298 89.3009 71.1887C89.2825 71.3363 89.2641 71.4838 89.2272 71.6498L89.0983 72.203L88.8588 73.2542L85.5427 87.2883H49.3417L46.4493 73.1804L46.2282 72.1108L46.1177 71.5391C46.0808 71.3916 46.0624 71.2441 46.0624 71.0965C45.9703 70.156 46.2467 69.2339 46.8546 68.4963H46.8362ZM49.6733 89.2062H85.1374V93.0051H49.6733V89.2062ZM43.1516 80.6124C43.1516 78.5101 43.7964 76.5368 44.9018 74.9139L47.831 89.2062V93.6691H43.1516V80.6124Z" stroke="#3875F6" mask="url(#path-1-outside-1_453_108)"/>
<path d="M90.4808 19.6445L90.4808 19.6445L90.4795 19.6463C89.9076 20.4436 89.8452 21.4525 90.3366 22.3133L90.3366 22.3133L90.3379 22.3156C90.8286 23.1547 91.7327 23.6287 92.7167 23.5261L92.7175 23.526L98.1923 22.9375C98.2733 22.9404 98.2943 22.973 98.301 22.9886L98.301 22.9886L98.3021 22.9911L100.53 28.0422C100.531 28.0425 100.531 28.0429 100.531 28.0432C100.922 28.9477 101.787 29.5025 102.768 29.5025C103.75 29.5025 104.615 28.9477 105.005 28.0432C105.005 28.0429 105.006 28.0425 105.006 28.0422L107.234 22.9911L107.237 22.9846L107.239 22.9779C107.245 22.9619 107.255 22.9519 107.267 22.945C107.281 22.9373 107.301 22.9325 107.324 22.9354L107.324 22.9354L107.329 22.9359L112.819 23.526L112.819 23.5261C113.8 23.6283 114.706 23.1761 115.199 22.3145C115.692 21.4704 115.628 20.4424 115.057 19.6463L115.055 19.6445L111.796 15.1839C111.796 15.1836 111.796 15.1833 111.796 15.183C111.761 15.1338 111.775 15.0949 111.785 15.0834L111.79 15.0773L111.794 15.0709L115.055 10.608L115.057 10.6062C115.629 9.8089 115.691 8.8 115.2 7.93919L115.198 7.93693C114.708 7.09786 113.803 6.62383 112.819 6.72643L112.819 6.72651L107.329 7.31664L107.328 7.31674C107.3 7.31987 107.282 7.31356 107.27 7.30625C107.257 7.29803 107.244 7.28398 107.235 7.26396L107.235 7.26395L107.234 7.26145L105.006 2.21033C105.006 2.21001 105.005 2.20969 105.005 2.20937C104.615 1.30483 103.75 0.75 102.768 0.75C101.787 0.75 100.922 1.30482 100.531 2.20935C100.531 2.20968 100.531 2.21 100.53 2.21033L98.3021 7.26145L98.2992 7.26797L98.2967 7.27465C98.2907 7.29062 98.2812 7.30063 98.2688 7.30754C98.255 7.31521 98.2351 7.32006 98.2118 7.31714L98.2118 7.31711L98.2075 7.31664L92.7175 6.72651L92.7167 6.72643C91.7362 6.6242 90.8297 7.07644 90.3372 7.93806C89.8442 8.78218 89.9085 9.81009 90.4795 10.6062L90.4795 10.6063L90.4808 10.608L93.7406 15.0695C93.7753 15.1188 93.761 15.1577 93.7514 15.1692L93.7463 15.1753L93.7417 15.1816L90.4808 19.6445ZM95.6143 13.6559L92.3806 9.23023C92.36 9.1979 92.3588 9.17602 92.3598 9.16145C92.3612 9.14123 92.3687 9.1198 92.3801 9.09693C92.3801 9.09694 92.3802 9.09683 92.3803 9.09661C92.3804 9.09641 92.3806 9.09612 92.3808 9.09574L92.3827 9.09264C92.3844 9.09008 92.3866 9.08707 92.3892 9.08391C92.3948 9.07735 92.4006 9.07217 92.4058 9.06868C92.4106 9.06545 92.4143 9.0641 92.4172 9.06345C92.4196 9.06292 92.4262 9.0618 92.439 9.06437L92.4501 9.0666L92.4614 9.06781L97.9494 9.65772C97.9498 9.65776 97.9501 9.6578 97.9505 9.65784C99.0195 9.78085 100.024 9.18374 100.454 8.22036L100.454 8.21936L102.683 3.16796C102.683 3.16773 102.683 3.1675 102.683 3.16726C102.713 3.10094 102.743 3.06602 102.762 3.04997C102.769 3.0442 102.774 3.04123 102.777 3.03976C102.78 3.04123 102.785 3.0442 102.792 3.04997C102.811 3.06602 102.841 3.10094 102.871 3.16725C102.871 3.16749 102.872 3.16773 102.872 3.16796L105.1 8.21858C105.1 8.21875 105.1 8.21893 105.1 8.2191C105.531 9.20537 106.557 9.78056 107.604 9.65781C107.605 9.65776 107.605 9.65771 107.606 9.65765L113.091 9.06806C113.116 9.06593 113.132 9.06817 113.141 9.07029C113.15 9.07241 113.155 9.07512 113.158 9.07699C113.164 9.08114 113.17 9.08822 113.174 9.09692C113.186 9.1198 113.193 9.14124 113.195 9.16146C113.196 9.17603 113.195 9.1979 113.174 9.23022L109.918 13.687C109.917 13.6872 109.917 13.6874 109.917 13.6876C109.282 14.5501 109.282 15.7025 109.917 16.565C109.917 16.5652 109.917 16.5653 109.918 16.5655L113.174 21.0223C113.195 21.0546 113.196 21.0765 113.195 21.0911C113.193 21.111 113.186 21.132 113.175 21.1545C113.175 21.155 113.173 21.1569 113.171 21.1597C113.167 21.1641 113.162 21.1688 113.155 21.1729C113.144 21.1796 113.126 21.1878 113.092 21.1846C113.092 21.1846 113.092 21.1846 113.091 21.1845L107.603 20.5946L107.601 20.5944C106.558 20.492 105.533 21.0641 105.101 22.0322L105.1 22.0332L102.872 27.0846C102.872 27.0848 102.871 27.085 102.871 27.0853C102.841 27.1516 102.811 27.1865 102.792 27.2026C102.785 27.2083 102.78 27.2113 102.777 27.2128C102.774 27.2113 102.769 27.2083 102.762 27.2026C102.743 27.1865 102.713 27.1516 102.683 27.0853C102.683 27.085 102.683 27.0848 102.683 27.0846L100.455 22.0351C100.455 22.0347 100.455 22.0344 100.455 22.0341C100.064 21.1284 99.1795 20.5747 98.2176 20.5747H98.2172H98.2168H98.2163H98.2159H98.2155H98.215H98.2146H98.2142H98.2137H98.2133H98.2128H98.2124H98.212H98.2115H98.2111H98.2107H98.2102H98.2098H98.2093H98.2089H98.2085H98.208H98.2076H98.2071H98.2067H98.2063H98.2058H98.2054H98.2049H98.2045H98.204H98.2036H98.2032H98.2027H98.2023H98.2018H98.2014H98.2009H98.2005H98.2H98.1996H98.1991H98.1987H98.1982H98.1978H98.1973H98.1969H98.1964H98.196H98.1955H98.1951H98.1946H98.1942H98.1937H98.1933H98.1928H98.1924H98.1919H98.1915H98.191H98.1906H98.1901H98.1896H98.1892H98.1887H98.1883H98.1878H98.1874H98.1869H98.1865H98.186H98.1855H98.1851H98.1846H98.1842H98.1837H98.1832H98.1828H98.1823H98.1819H98.1814H98.1809H98.1805H98.18H98.1796H98.1791H98.1786H98.1782H98.1777H98.1773H98.1768H98.1763H98.1759H98.1754H98.1749H98.1745H98.174H98.1735H98.1731H98.1726H98.1721H98.1717H98.1712H98.1707H98.1703H98.1698H98.1693H98.1689H98.1684H98.1679H98.1675H98.167H98.1665H98.1661H98.1656H98.1651H98.1647H98.1642H98.1637H98.1632H98.1628H98.1623H98.1618H98.1614H98.1609H98.1604H98.1599H98.1595H98.159H98.1585H98.1581H98.1576H98.1571H98.1566H98.1562H98.1557H98.1552H98.1547H98.1543H98.1538H98.1533H98.1528H98.1524H98.1519H98.1514H98.1509H98.1505H98.15H98.1495H98.149H98.1486H98.1481H98.1476H98.1471H98.1467H98.1462H98.1457H98.1452H98.1447H98.1443H98.1438H98.1433H98.1428H98.1423H98.1419H98.1414H98.1409H98.1404H98.14H98.1395H98.139H98.1385H98.138H98.1376H98.1371H98.1366H98.1361H98.1356H98.1351H98.1347H98.1342H98.1337H98.1332H98.1327H98.1323H98.1318H98.1313H98.1308H98.1303H98.1299H98.1294H98.1289H98.1284H98.1279H98.1274H98.127H98.1265H98.126H98.1255H98.125H98.1245H98.1241H98.1236H98.1231H98.1226H98.1221H98.1216H98.1212H98.1207H98.1202H98.1197H98.1192H98.1187H98.1183H98.1178H98.1173H98.1168H98.1163H98.1158H98.1153H98.1149H98.1144H98.1139H98.1134H98.1129H98.1124H98.112H98.1115H98.111H98.1105H98.11H98.1095H98.109H98.1086H98.1081H98.1076H98.1071H98.1066H98.1061H98.1056H98.1052H98.1047H98.1042H98.1037H98.1032H98.1027H98.1022H98.1018H98.1013H98.1008H98.1003H98.0998H98.0993H98.0988H98.0984H98.0979H98.0974H98.0969H98.0964H98.0959H98.0954H98.095H98.0945H98.094H98.0935H98.093H98.0925H98.092H98.0916H98.0911H98.0906H98.0901H98.0896H98.0891H98.0886H98.0882H98.0877H98.0872H98.0867H98.0862H98.0857H98.0852H98.0848H98.0843H98.0838H98.0833H98.0828H98.0823H98.0819H98.0814H98.0809H98.0804H98.0799H98.0794H98.0789H98.0785H98.078H98.0775H98.077H98.0765H98.076H98.0756H98.0751H98.0746H98.0741H98.0736H98.0731H98.0726H98.0722H98.0717H98.0712H98.0707H98.0702H98.0697H98.0693H98.0688H98.0683H98.0678H98.0673H98.0669H98.0664H98.0659H98.0654H98.0649H98.0644H98.064H98.0635H98.063H98.0625H98.062H98.0616H98.0611H98.0606H98.0601H98.0596H98.0592H98.0587H98.0582H98.0577H98.0572H98.0567H98.0563H98.0558H98.0553H98.0548H98.0544H98.0539H98.0534H98.0529H98.0524H98.052H98.0515H98.051H98.0505H98.05H98.0496H98.0491H98.0486H98.0481H98.0477H98.0472H98.0467H98.0462H98.0458H98.0453H98.0448H98.0443H98.0439H98.0434H98.0429H98.0424H98.042H98.0415H98.041H98.0405H98.0401H98.0396H98.0391H98.0386H98.0382H98.0377H98.0372H98.0367H98.0363H98.0358H98.0353H98.0349H98.0344H98.0339H98.0334H98.033H98.0325H98.032H98.0316H98.0311H98.0306H98.0301H98.0297H98.0292H98.0287H98.0283H98.0278H98.0273H98.0269H98.0264H98.0259H98.0255H98.025H98.0245H98.0241H98.0236H98.0231H98.0227H98.0222H98.0217H98.0213H98.0208H98.0203H98.0199H98.0194H98.019H98.0185H98.018H98.0176H98.0171H98.0166H98.0162H98.0157H98.0153H98.0148H98.0143H98.0139H98.0134H98.013H98.0125H98.012H98.0116H98.0111H98.0107H98.0102H98.0097H98.0093H98.0088H98.0084H98.0079H98.0075H98.007H98.0065H98.0061H98.0056H98.0052H98.0047H98.0043H98.0038H98.0034H98.0029H98.0025H98.002H98.0016H98.0011H98.0007H98.0002H97.9998H97.9993H97.9989H97.9984H97.998H97.9975H97.9971H97.9966H97.9962H97.9957H97.9953H97.9948H97.9944H97.9939H97.9935H97.993H97.9926H97.9921H97.9917H97.9913H97.9908H97.9904H97.9899H97.9895H97.989H97.9886H97.9882H97.9877H97.9873H97.9868H97.9864H97.986H97.9855H97.9851H97.9846H97.9842H97.9838H97.9833H97.9829H97.9825H97.982H97.9816H97.9812H97.9807H97.9803H97.9799H97.9794H97.979H97.9786H97.9781H97.9647L97.9514 20.5762L92.4638 21.166C92.4169 21.17 92.3983 21.1594 92.3904 21.1545C92.3796 21.1478 92.3688 21.1377 92.3531 21.1182C92.3466 21.1024 92.3424 21.0872 92.3414 21.0726C92.3404 21.0581 92.3416 21.0362 92.3622 21.0039L95.6186 16.5471C95.6187 16.5469 95.6188 16.5468 95.6189 16.5466C96.2555 15.6829 96.2533 14.5314 95.6202 13.6524L95.6143 13.6559Z" fill="#3875F6" stroke="#3875F6" stroke-width="0.5"/>
<path d="M102.768 20.2264C105.578 20.2264 107.863 17.9381 107.863 15.1263C107.863 12.3144 105.578 10.0261 102.768 10.0261C99.9584 10.0261 97.6729 12.3144 97.6729 15.1263C97.6729 17.9381 99.9584 20.2264 102.768 20.2264ZM102.768 12.3703C104.288 12.3703 105.521 13.6044 105.521 15.1263C105.521 16.6482 104.288 17.8822 102.768 17.8822C101.248 17.8822 100.015 16.6482 100.015 15.1263C100.015 13.6044 101.248 12.3703 102.768 12.3703Z" fill="#3875F6" stroke="#3875F6" stroke-width="0.5"/>
<mask id="path-4-outside-2_453_108" maskUnits="userSpaceOnUse" x="0" y="1.18027" width="44" height="44" fill="black">
<rect fill="white" y="1.18027" width="44" height="44"/>
<path d="M14.375 42.0879L16.4752 39.672L18.4281 40.1515L19.2018 43.2682L20.1045 43.9689H23.5865L24.4892 43.1944L25.0971 40.0778L27.4737 39.4323L29.2976 42.0326L30.5135 42.2908L34.1796 40.1884L34.5481 39.0081L33.2585 36.1497L34.8244 34.7481L38.0116 35.5227L39.0248 35.0985L40.9592 31.8344L40.7013 30.6172L38.1774 28.7915L38.9143 26.7076L42.0646 25.7486L42.7094 24.8819L42.8015 21.0091L41.9541 20.0686L38.8406 19.8289L38.3616 17.5606L40.4434 14.9419L40.5355 13.9091L39.117 11.4011L38.2142 10.94L34.8244 11.3089L33.1848 9.94418L33.9033 6.80911L33.498 5.8317L30.6424 4.00599L29.3897 4.26417L27.6211 6.79067L25.5577 5.99768L24.1576 2.84417L23.347 2.30936L19.9387 2.18027L18.9992 2.91793L18.3728 6.053L16.3463 6.58781L14.0803 4.30105L12.9565 4.15352L10.1562 5.85015L9.71403 6.80911L10.3404 10.0548L8.84815 11.567L5.80837 10.6081L4.72142 11.0507L3.1739 13.946L3.24759 14.9419L5.27411 17.6528L4.83196 19.6813L1.73692 20.3084L1 21.212V24.8819L1.62638 25.7302L4.73985 26.8736L5.182 28.4964L3.24759 31.2996L3.19232 32.2585L4.72142 35.1907L5.90049 35.6149L8.81131 34.3977L10.4694 36.1497L9.56664 39.2479L9.95352 40.2806L13.196 42.2723L14.375 42.0879ZM12.1643 35.2645L9.6956 32.6642L8.66392 32.4429L5.97418 33.5863L5.08988 31.8897L6.93217 29.1788L7.06113 28.4227L6.37948 25.9146L5.80837 25.306L2.86071 24.218V21.9681L5.78995 21.3595L6.50844 20.6588L7.17167 17.6343L7.00586 16.8782L5.07146 14.2964L5.97418 12.5998L8.82973 13.5034L9.7693 13.2637L11.9985 10.9954L12.238 10.1655L11.6484 7.08573L13.2881 6.10833L15.4251 8.266L16.3094 8.50574L19.4045 7.69431L20.0677 6.97508L20.6572 4.04287L22.7022 4.13508L24.047 7.10418L24.5445 7.58366L27.6395 8.76392L28.7264 8.43197L30.3845 6.03456L31.9505 7.03041L31.2688 10.0733L31.582 10.9769L33.9401 12.987L34.6218 13.1899L37.8089 12.8395L38.6195 14.278L36.6483 16.7491L36.4641 17.5237L37.1826 20.8801L38.0116 21.6177L40.9408 21.839L40.8856 24.1627L37.9195 25.0847L37.3299 25.6564L36.2246 28.8468L36.5562 29.898L38.9512 31.6315L37.7905 33.5679L34.806 32.8302L33.9585 33.0515L31.5267 35.2276L31.3057 36.2972L32.54 39.0081L30.3108 40.2806L28.6159 37.8463L27.6211 37.4959L24.0655 38.4365L23.4022 39.1557L22.8127 42.1063H20.823L20.0677 39.1741L19.4045 38.4918L16.3647 37.7357L15.4435 38.0307L13.4907 40.2806L11.5195 39.0819L12.3853 36.1497L12.1643 35.2645Z"/>
</mask>
<path d="M14.375 42.0879L16.4752 39.672L18.4281 40.1515L19.2018 43.2682L20.1045 43.9689H23.5865L24.4892 43.1944L25.0971 40.0778L27.4737 39.4323L29.2976 42.0326L30.5135 42.2908L34.1796 40.1884L34.5481 39.0081L33.2585 36.1497L34.8244 34.7481L38.0116 35.5227L39.0248 35.0985L40.9592 31.8344L40.7013 30.6172L38.1774 28.7915L38.9143 26.7076L42.0646 25.7486L42.7094 24.8819L42.8015 21.0091L41.9541 20.0686L38.8406 19.8289L38.3616 17.5606L40.4434 14.9419L40.5355 13.9091L39.117 11.4011L38.2142 10.94L34.8244 11.3089L33.1848 9.94418L33.9033 6.80911L33.498 5.8317L30.6424 4.00599L29.3897 4.26417L27.6211 6.79067L25.5577 5.99768L24.1576 2.84417L23.347 2.30936L19.9387 2.18027L18.9992 2.91793L18.3728 6.053L16.3463 6.58781L14.0803 4.30105L12.9565 4.15352L10.1562 5.85015L9.71403 6.80911L10.3404 10.0548L8.84815 11.567L5.80837 10.6081L4.72142 11.0507L3.1739 13.946L3.24759 14.9419L5.27411 17.6528L4.83196 19.6813L1.73692 20.3084L1 21.212V24.8819L1.62638 25.7302L4.73985 26.8736L5.182 28.4964L3.24759 31.2996L3.19232 32.2585L4.72142 35.1907L5.90049 35.6149L8.81131 34.3977L10.4694 36.1497L9.56664 39.2479L9.95352 40.2806L13.196 42.2723L14.375 42.0879ZM12.1643 35.2645L9.6956 32.6642L8.66392 32.4429L5.97418 33.5863L5.08988 31.8897L6.93217 29.1788L7.06113 28.4227L6.37948 25.9146L5.80837 25.306L2.86071 24.218V21.9681L5.78995 21.3595L6.50844 20.6588L7.17167 17.6343L7.00586 16.8782L5.07146 14.2964L5.97418 12.5998L8.82973 13.5034L9.7693 13.2637L11.9985 10.9954L12.238 10.1655L11.6484 7.08573L13.2881 6.10833L15.4251 8.266L16.3094 8.50574L19.4045 7.69431L20.0677 6.97508L20.6572 4.04287L22.7022 4.13508L24.047 7.10418L24.5445 7.58366L27.6395 8.76392L28.7264 8.43197L30.3845 6.03456L31.9505 7.03041L31.2688 10.0733L31.582 10.9769L33.9401 12.987L34.6218 13.1899L37.8089 12.8395L38.6195 14.278L36.6483 16.7491L36.4641 17.5237L37.1826 20.8801L38.0116 21.6177L40.9408 21.839L40.8856 24.1627L37.9195 25.0847L37.3299 25.6564L36.2246 28.8468L36.5562 29.898L38.9512 31.6315L37.7905 33.5679L34.806 32.8302L33.9585 33.0515L31.5267 35.2276L31.3057 36.2972L32.54 39.0081L30.3108 40.2806L28.6159 37.8463L27.6211 37.4959L24.0655 38.4365L23.4022 39.1557L22.8127 42.1063H20.823L20.0677 39.1741L19.4045 38.4918L16.3647 37.7357L15.4435 38.0307L13.4907 40.2806L11.5195 39.0819L12.3853 36.1497L12.1643 35.2645Z" fill="#3875F6"/>
<path d="M14.375 42.0879L16.4752 39.672L18.4281 40.1515L19.2018 43.2682L20.1045 43.9689H23.5865L24.4892 43.1944L25.0971 40.0778L27.4737 39.4323L29.2976 42.0326L30.5135 42.2908L34.1796 40.1884L34.5481 39.0081L33.2585 36.1497L34.8244 34.7481L38.0116 35.5227L39.0248 35.0985L40.9592 31.8344L40.7013 30.6172L38.1774 28.7915L38.9143 26.7076L42.0646 25.7486L42.7094 24.8819L42.8015 21.0091L41.9541 20.0686L38.8406 19.8289L38.3616 17.5606L40.4434 14.9419L40.5355 13.9091L39.117 11.4011L38.2142 10.94L34.8244 11.3089L33.1848 9.94418L33.9033 6.80911L33.498 5.8317L30.6424 4.00599L29.3897 4.26417L27.6211 6.79067L25.5577 5.99768L24.1576 2.84417L23.347 2.30936L19.9387 2.18027L18.9992 2.91793L18.3728 6.053L16.3463 6.58781L14.0803 4.30105L12.9565 4.15352L10.1562 5.85015L9.71403 6.80911L10.3404 10.0548L8.84815 11.567L5.80837 10.6081L4.72142 11.0507L3.1739 13.946L3.24759 14.9419L5.27411 17.6528L4.83196 19.6813L1.73692 20.3084L1 21.212V24.8819L1.62638 25.7302L4.73985 26.8736L5.182 28.4964L3.24759 31.2996L3.19232 32.2585L4.72142 35.1907L5.90049 35.6149L8.81131 34.3977L10.4694 36.1497L9.56664 39.2479L9.95352 40.2806L13.196 42.2723L14.375 42.0879ZM12.1643 35.2645L9.6956 32.6642L8.66392 32.4429L5.97418 33.5863L5.08988 31.8897L6.93217 29.1788L7.06113 28.4227L6.37948 25.9146L5.80837 25.306L2.86071 24.218V21.9681L5.78995 21.3595L6.50844 20.6588L7.17167 17.6343L7.00586 16.8782L5.07146 14.2964L5.97418 12.5998L8.82973 13.5034L9.7693 13.2637L11.9985 10.9954L12.238 10.1655L11.6484 7.08573L13.2881 6.10833L15.4251 8.266L16.3094 8.50574L19.4045 7.69431L20.0677 6.97508L20.6572 4.04287L22.7022 4.13508L24.047 7.10418L24.5445 7.58366L27.6395 8.76392L28.7264 8.43197L30.3845 6.03456L31.9505 7.03041L31.2688 10.0733L31.582 10.9769L33.9401 12.987L34.6218 13.1899L37.8089 12.8395L38.6195 14.278L36.6483 16.7491L36.4641 17.5237L37.1826 20.8801L38.0116 21.6177L40.9408 21.839L40.8856 24.1627L37.9195 25.0847L37.3299 25.6564L36.2246 28.8468L36.5562 29.898L38.9512 31.6315L37.7905 33.5679L34.806 32.8302L33.9585 33.0515L31.5267 35.2276L31.3057 36.2972L32.54 39.0081L30.3108 40.2806L28.6159 37.8463L27.6211 37.4959L24.0655 38.4365L23.4022 39.1557L22.8127 42.1063H20.823L20.0677 39.1741L19.4045 38.4918L16.3647 37.7357L15.4435 38.0307L13.4907 40.2806L11.5195 39.0819L12.3853 36.1497L12.1643 35.2645Z" stroke="#3875F6" mask="url(#path-4-outside-2_453_108)"/>
<path d="M21.8916 34.5002C28.1831 34.5002 33.3058 29.3719 33.3058 23.0746C33.3058 16.7773 28.1831 11.649 21.8916 11.649C15.6 11.649 10.4773 16.7773 10.4773 23.0746C10.4773 29.3719 15.6 34.5002 21.8916 34.5002ZM21.8916 13.9931C26.8932 13.9931 30.9635 18.0672 30.9635 23.0746C30.9635 28.082 26.8932 32.156 21.8916 32.156C16.8899 32.156 12.8196 28.082 12.8196 23.0746C12.8196 18.0672 16.8899 13.9931 21.8916 13.9931Z" fill="#3875F6" stroke="#3875F6" stroke-width="0.5"/>
<path d="M20.9705 49.5649H20.7205V49.8149V59.0726V59.1239L20.7406 59.171L21.017 59.8165L21.0359 59.8607L21.0699 59.8947L34.5002 73.3387L34.6783 73.517L34.8552 73.3374L36.1448 72.0281L36.3188 71.8514L36.1436 71.6759L23.0627 58.5819V49.8149V49.5649H22.8127H20.9705Z" fill="#3875F6" stroke="#3875F6" stroke-width="0.5"/>
<path d="M100.743 31.2996L100.763 31.0528L98.9391 30.7577L98.6894 30.7173L98.6519 30.9674C98.6264 31.1374 98.2505 33.347 96.984 35.5069C95.7208 37.6609 93.5932 39.7355 90.0562 39.7355H89.8062V39.9855V41.8297V42.0797H90.0562C94.6155 42.0797 97.3467 39.3924 98.9254 36.7266C99.7143 35.3944 100.22 34.0616 100.528 33.0572C100.683 32.5545 100.788 32.1329 100.855 31.833C100.889 31.683 100.913 31.5632 100.928 31.4786C100.936 31.4364 100.942 31.4025 100.946 31.3776C100.948 31.3653 100.95 31.3545 100.951 31.3455L100.953 31.3311L100.953 31.3309C100.953 31.329 100.955 31.3152 100.955 31.2996H100.743Z" fill="#3875F6" stroke="#3875F6" stroke-width="0.5"/>
<path d="M111.327 73.4202V73.1702H111.077H109.235H108.985V73.4202V79.6432H98.844H98.594V79.8932V81.7373V81.9873H98.844H110.156H110.259L110.333 81.914L111.254 80.9919L111.327 80.9187V80.8153V73.4202Z" fill="#3875F6" stroke="#3875F6" stroke-width="0.5"/>
<path d="M97.0679 63.9703L99.7466 61.2889L102.425 63.9703L102.602 64.1474L102.779 63.9703L105.458 61.2889L108.136 63.9703L108.21 64.0437H108.313H111.084C111.64 65.2128 112.391 66.3291 113.369 67.2906C115.647 69.57 118.64 70.7195 121.615 70.7195C124.59 70.7195 127.583 69.5697 129.861 67.2898C134.417 62.7291 134.416 55.3422 129.861 50.7635L129.684 50.5858L129.664 50.6065C127.409 48.4428 124.494 47.3519 121.596 47.3519C118.621 47.3519 115.628 48.5017 113.35 50.7816C112.373 51.7593 111.623 52.8584 111.065 54.0278H96.891H96.7874L96.7142 54.1011L91.9611 58.859L91.7846 59.0357L91.9611 59.2124L96.7142 63.9703L96.891 64.1474L97.0679 63.9703ZM130.889 59.091C130.889 61.5681 129.936 63.8853 128.203 65.6594L128.18 65.6455C126.422 67.4056 124.073 68.3754 121.578 68.3754C119.084 68.3754 116.752 67.4063 114.975 65.6451C114.205 64.8743 113.577 63.9589 113.11 62.9339L113.109 62.9321L112.611 61.8625L112.544 61.7179H112.385H109.135L106.906 59.486L105.598 58.1767L105.421 57.9996L105.244 58.1767L103.936 59.486L102.565 60.8581L101.195 59.486L99.8866 58.1767L99.7097 57.9996L99.5329 58.1767L98.2249 59.486L96.8542 60.8581L95.0705 59.0726L97.7316 56.4088H112.366H112.526L112.593 56.2642L113.09 55.1946L113.091 55.1929C113.558 54.1676 114.186 53.2521 114.957 52.4812C116.715 50.7212 119.064 49.7514 121.559 49.7514C124.053 49.7514 126.385 50.7207 128.163 52.4821C129.938 54.241 130.889 56.5923 130.889 59.091Z" fill="#3875F6" stroke="#3875F6" stroke-width="0.5"/>
<path d="M129.234 55.1892C128.212 54.1654 126.84 53.5852 125.373 53.5852C123.906 53.5852 122.553 54.1465 121.511 55.1892C120.489 56.2129 119.909 57.5855 119.909 59.0542C119.909 60.5221 120.47 61.8766 121.511 62.9192C122.534 63.9429 123.905 64.5231 125.373 64.5231C126.84 64.5231 128.193 63.9618 129.234 62.9192C130.276 61.8766 130.837 60.5221 130.837 59.0542C130.837 57.5862 130.276 56.2318 129.234 55.1892ZM127.573 61.2564C126.959 61.8704 126.177 62.1605 125.373 62.1605C124.573 62.1605 123.788 61.8544 123.172 61.2552C121.963 60.0433 121.963 58.0632 123.173 56.8519C123.786 56.238 124.569 55.9478 125.373 55.9478C126.173 55.9478 126.957 56.2539 127.574 56.8531C128.783 58.065 128.783 60.0451 127.573 61.2564Z" fill="#3875F6" stroke="#3875F6" stroke-width="0.5"/>
<path d="M67.4329 82.4668C70.1129 82.4668 72.3808 80.7265 72.3808 78.4732C72.3808 76.2185 70.1112 74.498 67.4329 74.498C64.7538 74.498 62.4851 76.2376 62.4851 78.4732C62.4851 80.7074 64.7521 82.4668 67.4329 82.4668ZM67.4329 76.8421C68.1626 76.8421 68.8276 77.047 69.3033 77.3609C69.7832 77.6776 70.0385 78.0801 70.0385 78.4732C70.0385 78.8669 69.7824 79.2742 69.3021 79.5955C68.8262 79.9138 68.1615 80.1227 67.4329 80.1227C66.7033 80.1227 66.0386 79.9178 65.5632 79.602C65.0844 79.2838 64.8274 78.8769 64.8274 78.4732C64.8274 78.0702 65.0835 77.668 65.5619 77.3545C66.0371 77.043 66.7022 76.8421 67.4329 76.8421Z" fill="#3875F6" stroke="#3875F6" stroke-width="0.5"/>
</svg>
