<svg width="100" height="100" viewBox="0 0 100 100" fill="none" xmlns="http://www.w3.org/2000/svg">
<path d="M58.3082 91.3177H53.4053V94.7226H58.3082V91.3177Z" fill="#3875F6"/>
<path d="M58.6314 27.9537H27.3921V31.3586H58.6314V27.9537Z" fill="#3875F6"/>
<path d="M47.9403 40.3472H27.3921V43.752H47.9403V40.3472Z" fill="#3875F6"/>
<path d="M59.5504 40.3472H53.626V43.752H59.5504V40.3472Z" fill="#3875F6"/>
<path d="M33.5376 70.7014C34.2867 70.1226 34.4229 69.0671 33.8441 68.318C33.2652 67.5689 32.1927 67.4328 31.4607 68.0116L3.40483 89.5642V40.7048L40.0919 67.4498C41.2836 68.318 42.6626 68.7436 44.0586 68.7436C45.4545 68.7436 46.8335 68.318 48.0252 67.4498L83.2312 41.7773V53.3878H86.636V39.2918L86.7041 39.2407L86.7552 36.5169L70.2588 23.5785V16.4454L70.2928 16.4113L70.2588 16.3773V16.3432H70.2247L54.954 0.102145V0H16.1219V24.9574L1.36193 36.5339V37.6404H0V94.7225H48.8083V91.3177H6.70752L33.5376 70.7014ZM46.0163 64.7089C44.8417 65.5601 43.2754 65.5601 42.1008 64.7089L19.5267 48.2465V26.6258L28.856 19.3054H41.1645V15.9006H33.1971L40.4324 10.2315C42.5775 8.54614 45.5567 8.54614 47.7017 10.2315L51.5662 13.2618V19.7821H59.874L66.8539 25.2468V49.5063L46.0334 64.6919L46.0163 64.7089ZM82.8737 37.8277L70.2417 47.0378V27.9367L82.8737 37.8447V37.8277ZM65.3899 19.7821H66.8539V20.9227L65.3899 19.7821ZM65.5601 16.3773H54.954V5.0732L65.5601 16.3773ZM19.5267 3.40483H51.5492V8.93769L49.7957 7.55873C46.4249 4.91999 41.7092 4.91999 38.3384 7.55873L27.6983 15.9006H27.4089V16.1219L19.5438 22.3017V3.40483H19.5267ZM16.1219 29.2986V45.761L5.24345 37.8277L16.1219 29.2986Z" fill="#3875F6"/>
<path d="M78.8391 58.0353C69.9866 58.0353 62.2576 63.5171 59.2103 71.6036L54.6818 68.0115C53.9498 67.4327 52.8773 67.5518 52.2984 68.2839C51.7196 69.0159 51.8388 70.0884 52.5708 70.6673L58.2399 75.1617C58.0015 76.4214 57.8483 77.6983 57.8483 79.0091C57.8483 90.5856 67.2627 99.9999 78.8391 99.9999C90.4156 99.9999 99.8299 90.5856 99.8299 79.0091C99.8299 67.4327 90.4156 58.0183 78.8391 58.0183V58.0353ZM78.8391 96.6121C69.1354 96.6121 61.2532 88.7299 61.2532 79.0261C61.2532 77.6131 61.4234 76.2171 61.7469 74.8722C63.6536 66.956 70.6846 61.4231 78.8391 61.4231C88.5429 61.4231 96.4251 69.3053 96.4251 79.0091C96.4251 88.7129 88.5429 96.5951 78.8391 96.5951V96.6121Z" fill="#3875F6"/>
<path d="M88.9515 78.9752C88.9515 78.822 88.9345 78.6858 88.8834 78.5326C88.8664 78.4645 88.8493 78.4134 88.8153 78.3623C88.7472 78.2091 88.6621 78.0729 88.5599 77.9537C88.5429 77.9197 88.5259 77.8856 88.5089 77.8686C88.5089 77.8686 88.4918 77.8686 88.4918 77.8516C88.4918 77.8516 88.4918 77.8346 88.4748 77.8175L82.1759 71.5186C81.5119 70.8546 80.4394 70.8546 79.7755 71.5186C79.1115 72.1825 79.1115 73.2551 79.7755 73.919L83.1633 77.3068H68.9651C68.0288 77.3068 67.2627 78.0729 67.2627 79.0092C67.2627 79.9456 68.0288 80.7116 68.9651 80.7116H82.9249L79.5031 83.8611C78.8051 84.491 78.771 85.5806 79.4009 86.2615C79.7414 86.619 80.2011 86.8063 80.6607 86.8063C81.0693 86.8063 81.4779 86.6531 81.8184 86.3637L88.4408 80.252C88.4408 80.252 88.4748 80.2009 88.4918 80.1839C88.611 80.0647 88.6961 79.9285 88.7813 79.7753C88.7983 79.7413 88.8323 79.7072 88.8493 79.6732C88.8493 79.6732 88.8493 79.6732 88.8493 79.6391C88.9174 79.4689 88.9515 79.2816 88.9685 79.0943C88.9685 79.0433 88.9685 78.9922 88.9685 78.9411L88.9515 78.9752Z" fill="#3875F6"/>
</svg>
