<svg width="71" height="90" viewBox="0 0 71 90" fill="none" xmlns="http://www.w3.org/2000/svg">
<path d="M37.5672 28.9286V7.23218H7.23242V82.7679H63.4824V33.1474H41.786C40.6671 33.1474 39.5941 32.7029 38.8029 31.9117C38.0117 31.1205 37.5672 30.0475 37.5672 28.9286ZM35.3574 61.2724C35.3574 61.7143 34.9958 62.0759 34.5539 62.0759H16.0717C15.6297 62.0759 15.2681 61.7143 15.2681 61.2724V56.4509C15.2681 56.009 15.6297 55.6474 16.0717 55.6474H34.5539C34.9958 55.6474 35.3574 56.009 35.3574 56.4509V61.2724ZM55.4467 42.7902V47.6116C55.4467 48.0536 55.0851 48.4152 54.6431 48.4152H16.0717C15.6297 48.4152 15.2681 48.0536 15.2681 47.6116V42.7902C15.2681 42.3482 15.6297 41.9866 16.0717 41.9866H54.6431C55.0851 41.9866 55.4467 42.3482 55.4467 42.7902Z" fill="#3875F6" fill-opacity="0.2"/>
<path d="M69.7701 22.5603L48.154 0.944197C47.5513 0.341518 46.7377 0 45.8839 0H3.21429C1.43638 0 0 1.43638 0 3.21429V86.7857C0 88.5636 1.43638 90 3.21429 90H67.5C69.2779 90 70.7143 88.5636 70.7143 86.7857V24.8404C70.7143 23.9866 70.3728 23.1629 69.7701 22.5603ZM44.3973 7.41295L63.3013 26.317H44.3973V7.41295ZM63.4821 82.7679H7.23214V7.23214H37.567V28.9286C37.567 30.0475 38.0114 31.1205 38.8026 31.9117C39.5938 32.7028 40.6668 33.1473 41.7857 33.1473H63.4821V82.7679Z" fill="#3875F6"/>
<path d="M15.2681 42.7901V47.6116C15.2681 48.0535 15.6297 48.4151 16.0716 48.4151H54.6431C55.085 48.4151 55.4466 48.0535 55.4466 47.6116V42.7901C55.4466 42.3482 55.085 41.9866 54.6431 41.9866H16.0716C15.6297 41.9866 15.2681 42.3482 15.2681 42.7901ZM34.5538 55.6473H16.0716C15.6297 55.6473 15.2681 56.0089 15.2681 56.4509V61.2723C15.2681 61.7143 15.6297 62.0759 16.0716 62.0759H34.5538C34.9957 62.0759 35.3574 61.7143 35.3574 61.2723V56.4509C35.3574 56.0089 34.9957 55.6473 34.5538 55.6473Z" fill="#3875F6"/>
</svg>
