<svg width="155" height="113" viewBox="0 0 155 113" fill="none" xmlns="http://www.w3.org/2000/svg">
<mask id="path-1-outside-1_572_127" maskUnits="userSpaceOnUse" x="0" y="0" width="155" height="113" fill="black">
<rect fill="white" width="155" height="113"/>
<path fill-rule="evenodd" clip-rule="evenodd" d="M28.7799 6.71528H23.3832V5.71959C23.3832 5.04252 22.8455 4.50484 22.1685 4.50484H19.8983C19.8983 2.5732 18.3251 1 16.3934 1C14.4618 1 12.8687 2.5732 12.8687 4.50484H10.5985C9.92142 4.50484 9.38375 5.04252 9.38375 5.71959V6.71528H4.007C2.35414 6.71528 1 8.06943 1 9.72228V39.7126C1 41.3654 2.35414 42.7196 4.007 42.7196H28.7799C30.4327 42.7196 31.7869 41.3654 31.7869 39.7126V9.72228C31.7869 8.06943 30.4327 6.71528 28.7799 6.71528ZM16.3934 2.99139C17.2298 2.99139 17.9069 3.66846 17.9069 4.50484H14.8601C14.8601 3.66846 15.5571 2.99139 16.3934 2.99139ZM29.7955 39.7126C29.7955 40.2702 29.3375 40.7282 28.7799 40.7282H4.007C3.44941 40.7282 2.99139 40.2702 2.99139 39.7126V9.72228C2.99139 9.16469 3.44941 8.70667 4.007 8.70667H9.38375V9.62271C9.38375 10.2998 9.92142 10.8375 10.5985 10.8375H22.1685C22.8455 10.8375 23.3832 10.2998 23.3832 9.62271V8.70667H28.7799C29.3375 8.70667 29.7955 9.16469 29.7955 9.72228V39.7126ZM100.749 59.4273C100.888 59.4473 101.864 59.5269 103.397 59.5269C107.28 59.5269 114.668 58.9693 120.483 55.3649C122.495 55.7831 124.605 56.0022 126.716 56.0022C141.532 56.0022 153.6 45.5274 153.6 32.6631C153.6 19.7987 141.532 9.324 126.716 9.324C111.9 9.324 99.8326 19.7987 99.8326 32.6631C99.8326 39.1749 102.959 45.3681 108.435 49.7691C107.997 50.9839 106.325 54.2497 100.35 57.5554L100.749 59.4273ZM101.824 32.683C101.824 20.9139 112.996 11.3353 126.716 11.3353L126.696 11.3552C140.417 11.3552 151.589 20.9338 151.589 32.7029C151.589 44.472 140.417 54.0506 126.696 54.0506C124.586 54.0506 122.495 53.8315 120.503 53.3536H120.264L119.727 53.5129C114.728 56.7589 108.097 57.4559 104.194 57.5355C109.79 53.5926 110.487 50.0081 110.566 49.4107L110.168 48.6141C104.871 44.5716 101.824 38.7567 101.824 32.683ZM76.3143 69.3843H70.141V64.7244C73.7056 63.1712 76.4935 60.1841 77.8079 56.5C78.0866 56.5597 78.3654 56.5797 78.6442 56.5797C81.9101 56.5797 84.5587 53.9311 84.5587 50.6652C84.5587 47.3994 81.9101 44.7309 78.6442 44.7309V43.6954C79.2018 43.4365 79.6997 43.0382 80.1378 42.5205C83.1293 39.0272 82.1179 30.6707 82.0164 29.8324V29.8323L82.0097 29.7756C81.7707 28.0431 80.078 24.7573 75.2589 24.6378C70.4839 24.5097 45.1364 24.617 40.815 24.6352L40.1905 24.6378L39.4935 26.3504L43.2971 30.0145L41.1862 35.4709V36.1281C41.2858 36.4467 43.4166 43.078 48.2158 44.0339V44.7707C45.1889 45.0495 42.859 47.5786 42.859 50.6652C42.859 53.9311 45.5075 56.5797 48.7933 56.5797C48.8929 56.5797 48.9925 56.5797 49.0721 56.5597C50.3267 60.0447 52.9155 62.8924 56.2212 64.4855V69.3843H50.1475C43.0183 69.3843 37.2234 75.1593 37.2234 82.3084V112H89.2384V82.3084C89.2384 75.1593 83.4435 69.3843 76.3143 69.3843ZM58.2126 65.282C59.5468 65.7002 60.9408 65.9193 62.4144 65.9193H64.4456C65.7201 65.9193 66.9747 65.74 68.1496 65.4015V69.3644H58.2126V65.282ZM82.5673 50.6652C82.5673 52.8159 80.8149 54.5883 78.6442 54.5883C78.5447 54.5883 78.4451 54.5883 78.3455 54.5684C78.5447 53.6523 78.6442 52.6964 78.6442 51.7207V46.7223C80.8149 46.7223 82.5673 48.4946 82.5673 50.6652ZM44.8504 50.6652C44.8504 48.6938 46.324 47.0409 48.2158 46.7621V51.7207C48.2158 52.6964 48.3154 53.6523 48.5145 54.5684C46.4634 54.429 44.8504 52.7164 44.8504 50.6652ZM49.2115 42.1222C48.8531 42.1222 48.5344 42.0624 48.2158 41.9629C45.2486 41.1066 43.5958 37.0242 43.1776 35.8493L45.3881 30.134L45.169 29.0587L42.6399 26.6093C43.3965 26.6072 44.3043 26.6044 45.3285 26.6013L45.3431 26.6013L45.3801 26.6012L45.419 26.6011L45.4258 26.601C54.218 26.5745 71.3799 26.5226 75.1991 26.6292C79.4209 26.7287 79.9785 29.6959 80.0382 30.0344C80.3369 32.3245 80.6954 38.7567 78.6442 41.2261H78.6243C78.3256 41.5646 78.007 41.8036 77.6485 41.9429C77.3698 42.0624 77.0511 42.1421 76.7126 42.1421H76.6529C75.239 42.2018 74.1437 41.7637 73.3272 40.9871C72.2519 39.9516 71.8735 38.4182 71.754 37.5022C71.6744 37.0043 71.6744 36.6857 71.6744 36.6658L70.8579 36.5065L69.7427 36.2874C69.7427 36.2874 69.683 36.4268 69.6432 36.5065C69.5038 36.8649 69.3245 37.1835 69.1254 37.5022C66.0731 42.7149 58.878 42.4238 53.4699 42.2049L53.3934 42.2018L53.0945 42.19C52.1973 42.1545 51.3809 42.1222 50.6453 42.1222H50.2072C50.0081 42.1421 49.8288 42.1421 49.6496 42.1421C49.4903 42.162 49.3509 42.162 49.2115 42.1222ZM51.0436 56.1415C50.9241 55.8428 50.8046 55.5242 50.725 55.1857C50.6254 54.8671 50.5258 54.5484 50.4661 54.2099C50.2869 53.4133 50.2072 52.577 50.2072 51.7207V44.1136C51.0834 44.1136 52.1389 44.1335 53.3138 44.1932C54.4489 44.253 55.7034 44.2928 57.0178 44.2928C61.7373 44.2928 67.1141 43.6157 70.2008 39.5334C70.5194 40.4892 71.057 41.5447 71.9333 42.401C73.148 43.5759 74.7212 44.1534 76.6529 44.1335V51.7207C76.6529 52.4774 76.5931 53.2142 76.4338 53.9112C76.394 54.2696 76.3143 54.6082 76.1948 54.9268C76.1351 55.2653 76.0355 55.584 75.8961 55.9026C74.8606 58.7503 72.7896 61.1001 70.141 62.514C69.6631 62.7729 69.1453 62.9919 68.6275 63.1712C67.3332 63.669 65.9193 63.9279 64.4456 63.9279H62.4144C60.9408 63.9279 59.5269 63.669 58.2325 63.1712C57.5156 62.9322 56.8584 62.6136 56.2212 62.2153C53.8714 60.8412 52.0393 58.7104 51.0436 56.1415ZM87.247 110.009H39.2147V82.3084C39.2147 76.2745 44.1335 71.3757 50.1475 71.3757H76.3143C82.3283 71.3757 87.247 76.2745 87.247 82.3084V110.009ZM127.413 38.0597H125.422V34.0969L126.736 33.1609C126.736 33.1609 128.728 33.7783 130.201 32.7228C131.376 31.8665 131.994 30.0942 131.994 27.4656C131.994 25.5737 131.456 24.2992 130.381 23.5823C127.832 21.9295 122.674 23.5823 120.882 24.359L120.085 22.5269C120.384 22.3875 127.513 19.3208 131.476 21.9096C133.149 23.0048 134.005 24.8568 134.005 27.4456C134.005 30.7513 133.129 33.0813 131.376 34.3358C130.042 35.3116 128.509 35.3913 127.453 35.2917V38.0597H127.413ZM125.422 40.6685H127.413V43.8348H125.422V40.6685ZM8.84607 20.5753L6.11787 18.2454C5.69968 17.887 5.63994 17.2696 5.99838 16.8315C6.35683 16.4133 6.99408 16.3735 7.41227 16.7121L8.78633 17.887L11.8332 15.0194C12.2314 14.641 12.8687 14.6609 13.247 15.0592C13.6254 15.4575 13.6055 16.0947 13.2072 16.4731L8.84607 20.5753ZM16.8714 16.7718H26.5893V18.7632H16.8714V16.7718ZM9.0253 28.7201L6.29709 26.3902C5.8789 26.0318 5.81916 25.4144 6.17761 24.9763C6.53606 24.5581 7.15339 24.5183 7.5915 24.8568L8.96555 26.0318L12.0124 23.1642C12.4107 22.7858 13.0479 22.8057 13.4263 23.204C13.8046 23.6023 13.7847 24.2395 13.3864 24.6179L9.0253 28.7201ZM17.0506 24.9166H26.7686V26.908H17.0506V24.9166ZM8.78633 36.8649L6.05813 34.535C5.63994 34.1765 5.58019 33.5592 5.93864 33.1211C6.29709 32.7029 6.93434 32.6432 7.35253 33.0016L8.72659 34.1765L11.7734 31.3089C12.1717 30.9306 12.8089 30.9505 13.1873 31.3488C13.5657 31.747 13.5457 32.3843 13.1475 32.7626L8.78633 36.8649ZM16.8116 33.0614H26.5296V35.0527H16.8116V33.0614ZM15.3977 63.1313L27.6846 75.4182L29.0786 74.0043L17.3891 62.2949V50.7051H15.3977V63.1313Z"/>
</mask>
<path fill-rule="evenodd" clip-rule="evenodd" d="M28.7799 6.71528H23.3832V5.71959C23.3832 5.04252 22.8455 4.50484 22.1685 4.50484H19.8983C19.8983 2.5732 18.3251 1 16.3934 1C14.4618 1 12.8687 2.5732 12.8687 4.50484H10.5985C9.92142 4.50484 9.38375 5.04252 9.38375 5.71959V6.71528H4.007C2.35414 6.71528 1 8.06943 1 9.72228V39.7126C1 41.3654 2.35414 42.7196 4.007 42.7196H28.7799C30.4327 42.7196 31.7869 41.3654 31.7869 39.7126V9.72228C31.7869 8.06943 30.4327 6.71528 28.7799 6.71528ZM16.3934 2.99139C17.2298 2.99139 17.9069 3.66846 17.9069 4.50484H14.8601C14.8601 3.66846 15.5571 2.99139 16.3934 2.99139ZM29.7955 39.7126C29.7955 40.2702 29.3375 40.7282 28.7799 40.7282H4.007C3.44941 40.7282 2.99139 40.2702 2.99139 39.7126V9.72228C2.99139 9.16469 3.44941 8.70667 4.007 8.70667H9.38375V9.62271C9.38375 10.2998 9.92142 10.8375 10.5985 10.8375H22.1685C22.8455 10.8375 23.3832 10.2998 23.3832 9.62271V8.70667H28.7799C29.3375 8.70667 29.7955 9.16469 29.7955 9.72228V39.7126ZM100.749 59.4273C100.888 59.4473 101.864 59.5269 103.397 59.5269C107.28 59.5269 114.668 58.9693 120.483 55.3649C122.495 55.7831 124.605 56.0022 126.716 56.0022C141.532 56.0022 153.6 45.5274 153.6 32.6631C153.6 19.7987 141.532 9.324 126.716 9.324C111.9 9.324 99.8326 19.7987 99.8326 32.6631C99.8326 39.1749 102.959 45.3681 108.435 49.7691C107.997 50.9839 106.325 54.2497 100.35 57.5554L100.749 59.4273ZM101.824 32.683C101.824 20.9139 112.996 11.3353 126.716 11.3353L126.696 11.3552C140.417 11.3552 151.589 20.9338 151.589 32.7029C151.589 44.472 140.417 54.0506 126.696 54.0506C124.586 54.0506 122.495 53.8315 120.503 53.3536H120.264L119.727 53.5129C114.728 56.7589 108.097 57.4559 104.194 57.5355C109.79 53.5926 110.487 50.0081 110.566 49.4107L110.168 48.6141C104.871 44.5716 101.824 38.7567 101.824 32.683ZM76.3143 69.3843H70.141V64.7244C73.7056 63.1712 76.4935 60.1841 77.8079 56.5C78.0866 56.5597 78.3654 56.5797 78.6442 56.5797C81.9101 56.5797 84.5587 53.9311 84.5587 50.6652C84.5587 47.3994 81.9101 44.7309 78.6442 44.7309V43.6954C79.2018 43.4365 79.6997 43.0382 80.1378 42.5205C83.1293 39.0272 82.1179 30.6707 82.0164 29.8324V29.8323L82.0097 29.7756C81.7707 28.0431 80.078 24.7573 75.2589 24.6378C70.4839 24.5097 45.1364 24.617 40.815 24.6352L40.1905 24.6378L39.4935 26.3504L43.2971 30.0145L41.1862 35.4709V36.1281C41.2858 36.4467 43.4166 43.078 48.2158 44.0339V44.7707C45.1889 45.0495 42.859 47.5786 42.859 50.6652C42.859 53.9311 45.5075 56.5797 48.7933 56.5797C48.8929 56.5797 48.9925 56.5797 49.0721 56.5597C50.3267 60.0447 52.9155 62.8924 56.2212 64.4855V69.3843H50.1475C43.0183 69.3843 37.2234 75.1593 37.2234 82.3084V112H89.2384V82.3084C89.2384 75.1593 83.4435 69.3843 76.3143 69.3843ZM58.2126 65.282C59.5468 65.7002 60.9408 65.9193 62.4144 65.9193H64.4456C65.7201 65.9193 66.9747 65.74 68.1496 65.4015V69.3644H58.2126V65.282ZM82.5673 50.6652C82.5673 52.8159 80.8149 54.5883 78.6442 54.5883C78.5447 54.5883 78.4451 54.5883 78.3455 54.5684C78.5447 53.6523 78.6442 52.6964 78.6442 51.7207V46.7223C80.8149 46.7223 82.5673 48.4946 82.5673 50.6652ZM44.8504 50.6652C44.8504 48.6938 46.324 47.0409 48.2158 46.7621V51.7207C48.2158 52.6964 48.3154 53.6523 48.5145 54.5684C46.4634 54.429 44.8504 52.7164 44.8504 50.6652ZM49.2115 42.1222C48.8531 42.1222 48.5344 42.0624 48.2158 41.9629C45.2486 41.1066 43.5958 37.0242 43.1776 35.8493L45.3881 30.134L45.169 29.0587L42.6399 26.6093C43.3965 26.6072 44.3043 26.6044 45.3285 26.6013L45.3431 26.6013L45.3801 26.6012L45.419 26.6011L45.4258 26.601C54.218 26.5745 71.3799 26.5226 75.1991 26.6292C79.4209 26.7287 79.9785 29.6959 80.0382 30.0344C80.3369 32.3245 80.6954 38.7567 78.6442 41.2261H78.6243C78.3256 41.5646 78.007 41.8036 77.6485 41.9429C77.3698 42.0624 77.0511 42.1421 76.7126 42.1421H76.6529C75.239 42.2018 74.1437 41.7637 73.3272 40.9871C72.2519 39.9516 71.8735 38.4182 71.754 37.5022C71.6744 37.0043 71.6744 36.6857 71.6744 36.6658L70.8579 36.5065L69.7427 36.2874C69.7427 36.2874 69.683 36.4268 69.6432 36.5065C69.5038 36.8649 69.3245 37.1835 69.1254 37.5022C66.0731 42.7149 58.878 42.4238 53.4699 42.2049L53.3934 42.2018L53.0945 42.19C52.1973 42.1545 51.3809 42.1222 50.6453 42.1222H50.2072C50.0081 42.1421 49.8288 42.1421 49.6496 42.1421C49.4903 42.162 49.3509 42.162 49.2115 42.1222ZM51.0436 56.1415C50.9241 55.8428 50.8046 55.5242 50.725 55.1857C50.6254 54.8671 50.5258 54.5484 50.4661 54.2099C50.2869 53.4133 50.2072 52.577 50.2072 51.7207V44.1136C51.0834 44.1136 52.1389 44.1335 53.3138 44.1932C54.4489 44.253 55.7034 44.2928 57.0178 44.2928C61.7373 44.2928 67.1141 43.6157 70.2008 39.5334C70.5194 40.4892 71.057 41.5447 71.9333 42.401C73.148 43.5759 74.7212 44.1534 76.6529 44.1335V51.7207C76.6529 52.4774 76.5931 53.2142 76.4338 53.9112C76.394 54.2696 76.3143 54.6082 76.1948 54.9268C76.1351 55.2653 76.0355 55.584 75.8961 55.9026C74.8606 58.7503 72.7896 61.1001 70.141 62.514C69.6631 62.7729 69.1453 62.9919 68.6275 63.1712C67.3332 63.669 65.9193 63.9279 64.4456 63.9279H62.4144C60.9408 63.9279 59.5269 63.669 58.2325 63.1712C57.5156 62.9322 56.8584 62.6136 56.2212 62.2153C53.8714 60.8412 52.0393 58.7104 51.0436 56.1415ZM87.247 110.009H39.2147V82.3084C39.2147 76.2745 44.1335 71.3757 50.1475 71.3757H76.3143C82.3283 71.3757 87.247 76.2745 87.247 82.3084V110.009ZM127.413 38.0597H125.422V34.0969L126.736 33.1609C126.736 33.1609 128.728 33.7783 130.201 32.7228C131.376 31.8665 131.994 30.0942 131.994 27.4656C131.994 25.5737 131.456 24.2992 130.381 23.5823C127.832 21.9295 122.674 23.5823 120.882 24.359L120.085 22.5269C120.384 22.3875 127.513 19.3208 131.476 21.9096C133.149 23.0048 134.005 24.8568 134.005 27.4456C134.005 30.7513 133.129 33.0813 131.376 34.3358C130.042 35.3116 128.509 35.3913 127.453 35.2917V38.0597H127.413ZM125.422 40.6685H127.413V43.8348H125.422V40.6685ZM8.84607 20.5753L6.11787 18.2454C5.69968 17.887 5.63994 17.2696 5.99838 16.8315C6.35683 16.4133 6.99408 16.3735 7.41227 16.7121L8.78633 17.887L11.8332 15.0194C12.2314 14.641 12.8687 14.6609 13.247 15.0592C13.6254 15.4575 13.6055 16.0947 13.2072 16.4731L8.84607 20.5753ZM16.8714 16.7718H26.5893V18.7632H16.8714V16.7718ZM9.0253 28.7201L6.29709 26.3902C5.8789 26.0318 5.81916 25.4144 6.17761 24.9763C6.53606 24.5581 7.15339 24.5183 7.5915 24.8568L8.96555 26.0318L12.0124 23.1642C12.4107 22.7858 13.0479 22.8057 13.4263 23.204C13.8046 23.6023 13.7847 24.2395 13.3864 24.6179L9.0253 28.7201ZM17.0506 24.9166H26.7686V26.908H17.0506V24.9166ZM8.78633 36.8649L6.05813 34.535C5.63994 34.1765 5.58019 33.5592 5.93864 33.1211C6.29709 32.7029 6.93434 32.6432 7.35253 33.0016L8.72659 34.1765L11.7734 31.3089C12.1717 30.9306 12.8089 30.9505 13.1873 31.3488C13.5657 31.747 13.5457 32.3843 13.1475 32.7626L8.78633 36.8649ZM16.8116 33.0614H26.5296V35.0527H16.8116V33.0614ZM15.3977 63.1313L27.6846 75.4182L29.0786 74.0043L17.3891 62.2949V50.7051H15.3977V63.1313Z" fill="#3875F6"/>
<path d="M23.3832 6.71528H22.8832V7.21528H23.3832V6.71528ZM19.8983 4.50484H19.3983V5.00484H19.8983V4.50484ZM12.8687 4.50484V5.00484H13.3687V4.50484H12.8687ZM9.38375 6.71528V7.21528H9.88375V6.71528H9.38375ZM17.9069 4.50484V5.00484H18.4069V4.50484H17.9069ZM14.8601 4.50484H14.3601V5.00484H14.8601V4.50484ZM9.38375 8.70667H9.88375V8.20667H9.38375V8.70667ZM23.3832 8.70667V8.20667H22.8832V8.70667H23.3832ZM100.749 59.4273L100.26 59.5314L100.332 59.8729L100.678 59.9223L100.749 59.4273ZM120.483 55.3649L120.585 54.8754L120.39 54.8347L120.22 54.9399L120.483 55.3649ZM108.435 49.7691L108.906 49.9387L109.027 49.603L108.749 49.3794L108.435 49.7691ZM100.35 57.5554L100.108 57.1179L99.7843 57.2973L99.8613 57.6595L100.35 57.5554ZM126.716 11.3353L127.07 11.6889L127.923 10.8353H126.716V11.3353ZM126.696 11.3552L126.343 11.0017L125.489 11.8552H126.696V11.3552ZM120.503 53.3536L120.62 52.8674L120.562 52.8536H120.503V53.3536ZM120.264 53.3536V52.8536H120.192L120.122 52.8742L120.264 53.3536ZM119.727 53.5129L119.585 53.0335L119.515 53.0541L119.454 53.0936L119.727 53.5129ZM104.194 57.5355L103.906 57.1268L102.569 58.0688L104.204 58.0354L104.194 57.5355ZM110.566 49.4107L111.062 49.4767L111.082 49.3245L111.013 49.187L110.566 49.4107ZM110.168 48.6141L110.615 48.3905L110.563 48.2869L110.471 48.2166L110.168 48.6141ZM70.141 69.3843H69.641V69.8843H70.141V69.3843ZM70.141 64.7244L69.9413 64.2661L69.641 64.3969V64.7244H70.141ZM77.8079 56.5L77.9126 56.0111L77.4842 55.9193L77.3369 56.332L77.8079 56.5ZM78.6442 44.7309H78.1442V45.2309H78.6442V44.7309ZM78.6442 43.6954L78.4337 43.2419L78.1442 43.3763V43.6954H78.6442ZM80.1378 42.5205L79.758 42.1952L79.7561 42.1975L80.1378 42.5205ZM82.0164 29.8324H81.5164V29.8625L81.5201 29.8924L82.0164 29.8324ZM82.0164 29.8323H82.5164V29.8026L82.5129 29.7731L82.0164 29.8323ZM82.0097 29.7756L82.5063 29.7164L82.505 29.7072L82.0097 29.7756ZM75.2589 24.6378L75.2455 25.1376L75.2465 25.1376L75.2589 24.6378ZM40.815 24.6352L40.817 25.1352L40.8171 25.1352L40.815 24.6352ZM40.1905 24.6378L40.1885 24.1378L39.8536 24.1391L39.7274 24.4493L40.1905 24.6378ZM39.4935 26.3504L39.0304 26.1619L38.9028 26.4755L39.1466 26.7105L39.4935 26.3504ZM43.2971 30.0145L43.7634 30.1949L43.8833 29.885L43.644 29.6544L43.2971 30.0145ZM41.1862 35.4709L40.7199 35.2905L40.6862 35.3776V35.4709H41.1862ZM41.1862 36.1281H40.6862V36.2044L40.709 36.2772L41.1862 36.1281ZM48.2158 44.0339H48.7158V43.6237L48.3135 43.5435L48.2158 44.0339ZM48.2158 44.7707L48.2617 45.2686L48.7158 45.2268V44.7707H48.2158ZM49.0721 56.5597L49.5426 56.3904L49.3894 55.965L48.9509 56.0747L49.0721 56.5597ZM56.2212 64.4855H56.7212V64.1714L56.4383 64.035L56.2212 64.4855ZM56.2212 69.3843V69.8843H56.7212V69.3843H56.2212ZM37.2234 112H36.7234V112.5H37.2234V112ZM89.2384 112V112.5H89.7384V112H89.2384ZM58.2126 65.282L58.3621 64.8049L57.7126 64.6013V65.282H58.2126ZM68.1496 65.4015H68.6496V64.7371L68.0112 64.9211L68.1496 65.4015ZM68.1496 69.3644V69.8644H68.6496V69.3644H68.1496ZM58.2126 69.3644H57.7126V69.8644H58.2126V69.3644ZM78.3455 54.5684L77.8569 54.4621L77.7489 54.9589L78.2475 55.0586L78.3455 54.5684ZM78.6442 46.7223V46.2223H78.1442V46.7223H78.6442ZM48.2158 46.7621H48.7158V46.183L48.1429 46.2675L48.2158 46.7621ZM48.5145 54.5684L48.4806 55.0672L49.1445 55.1123L49.0031 54.4621L48.5145 54.5684ZM48.2158 41.9629L48.365 41.4855L48.3545 41.4825L48.2158 41.9629ZM49.2115 42.1222L49.3489 41.6414L49.2815 41.6222H49.2115V42.1222ZM43.1776 35.8493L42.7113 35.6689L42.6443 35.8421L42.7066 36.017L43.1776 35.8493ZM45.3881 30.134L45.8544 30.3144L45.9072 30.1778L45.878 30.0342L45.3881 30.134ZM45.169 29.0587L45.6589 28.9589L45.628 28.8072L45.5169 28.6995L45.169 29.0587ZM42.6399 26.6093L42.6386 26.1093L41.4085 26.1126L42.2921 26.9684L42.6399 26.6093ZM45.3285 26.6013L45.33 27.1013L45.3301 27.1013L45.3285 26.6013ZM45.3431 26.6013L45.3416 26.1013L45.3415 26.1013L45.3431 26.6013ZM45.3801 26.6012L45.3816 27.1012L45.3816 27.1012L45.3801 26.6012ZM45.419 26.6011L45.4205 27.1011L45.4206 27.1011L45.419 26.6011ZM45.4258 26.601L45.4243 26.101L45.4241 26.101L45.4258 26.601ZM75.1991 26.6292L75.1852 27.129L75.1873 27.129L75.1991 26.6292ZM80.0382 30.0344L80.534 29.9698L80.5326 29.9586L80.5306 29.9476L80.0382 30.0344ZM78.6442 41.2261V41.7261H78.8789L79.0289 41.5455L78.6442 41.2261ZM78.6243 41.2261V40.7261H78.3987L78.2494 40.8952L78.6243 41.2261ZM77.6485 41.9429L77.4673 41.4769L77.4594 41.48L77.4516 41.4834L77.6485 41.9429ZM76.6529 42.1421V41.6421H76.6423L76.6317 41.6425L76.6529 42.1421ZM73.3272 40.9871L72.9804 41.3472L72.9826 41.3494L73.3272 40.9871ZM71.754 37.5022L72.2498 37.4375L72.2489 37.4303L72.2477 37.4232L71.754 37.5022ZM71.6744 36.6658H72.1744V36.2539L71.7701 36.175L71.6744 36.6658ZM70.8579 36.5065L70.7615 36.9971L70.7622 36.9972L70.8579 36.5065ZM69.7427 36.2874L69.8391 35.7968L69.4424 35.7189L69.2832 36.0904L69.7427 36.2874ZM69.6432 36.5065L69.1959 36.2829L69.1856 36.3036L69.1772 36.3252L69.6432 36.5065ZM69.1254 37.5022L68.7014 37.2371L68.6976 37.2433L68.6939 37.2495L69.1254 37.5022ZM53.4699 42.2049L53.4901 41.7053L53.4901 41.7053L53.4699 42.2049ZM53.3934 42.2018L53.4136 41.7022L53.4131 41.7022L53.3934 42.2018ZM53.0945 42.19L53.0747 42.6896L53.0748 42.6896L53.0945 42.19ZM50.2072 42.1222V41.6222H50.1823L50.1575 41.6247L50.2072 42.1222ZM49.6496 42.1421V41.6421H49.6185L49.5876 41.646L49.6496 42.1421ZM50.725 55.1857L51.2117 55.0712L51.2076 55.0537L51.2022 55.0365L50.725 55.1857ZM51.0436 56.1415L51.5098 55.9608L51.5078 55.9559L51.0436 56.1415ZM50.4661 54.2099L50.9585 54.123L50.9565 54.1115L50.9539 54.1001L50.4661 54.2099ZM50.2072 44.1136V43.6136H49.7072V44.1136H50.2072ZM53.3138 44.1932L53.3401 43.6939L53.3392 43.6939L53.3138 44.1932ZM70.2008 39.5334L70.6751 39.3753L70.3747 38.4742L69.8019 39.2318L70.2008 39.5334ZM71.9333 42.401L71.5838 42.7586L71.5856 42.7604L71.9333 42.401ZM76.6529 44.1335H77.1529V43.6283L76.6477 43.6335L76.6529 44.1335ZM76.4338 53.9112L75.9464 53.7998L75.94 53.8276L75.9369 53.856L76.4338 53.9112ZM76.1948 54.9268L75.7267 54.7512L75.7105 54.7945L75.7024 54.8399L76.1948 54.9268ZM75.8961 55.9026L75.438 55.7022L75.4317 55.7168L75.4262 55.7317L75.8961 55.9026ZM70.141 62.514L69.9055 62.0729L69.9029 62.0743L70.141 62.514ZM68.6275 63.1712L68.464 62.6987L68.456 62.7014L68.4481 62.7045L68.6275 63.1712ZM58.2325 63.1712L58.412 62.7045L58.4014 62.7004L58.3906 62.6968L58.2325 63.1712ZM56.2212 62.2153L56.4862 61.7913L56.48 61.7874L56.4736 61.7837L56.2212 62.2153ZM39.2147 110.009H38.7147V110.509H39.2147V110.009ZM87.247 110.009V110.509H87.747V110.009H87.247ZM125.422 38.0597H124.922V38.5597H125.422V38.0597ZM125.422 34.0969L125.132 33.6896L124.922 33.8391V34.0969H125.422ZM126.736 33.1609L126.884 32.6833L126.648 32.61L126.446 32.7536L126.736 33.1609ZM130.201 32.7228L130.492 33.1293L130.496 33.1269L130.201 32.7228ZM130.381 23.5823L130.658 23.1663L130.653 23.1628L130.381 23.5823ZM120.882 24.359L120.423 24.5583L120.622 25.0163L121.08 24.8178L120.882 24.359ZM120.085 22.5269L119.874 22.0738L119.432 22.2797L119.627 22.7263L120.085 22.5269ZM131.476 21.9096L131.75 21.4913L131.749 21.491L131.476 21.9096ZM131.376 34.3358L131.085 33.9293L131.081 33.9323L131.376 34.3358ZM127.453 35.2917L127.5 34.7939L126.953 34.7423V35.2917H127.453ZM127.453 38.0597V38.5597H127.953V38.0597H127.453ZM127.413 40.6685H127.913V40.1685H127.413V40.6685ZM125.422 40.6685V40.1685H124.922V40.6685H125.422ZM127.413 43.8348V44.3348H127.913V43.8348H127.413ZM125.422 43.8348H124.922V44.3348H125.422V43.8348ZM6.11787 18.2454L5.79247 18.6251L5.79316 18.6256L6.11787 18.2454ZM8.84607 20.5753L8.52136 20.9556L8.86218 21.2466L9.18865 20.9395L8.84607 20.5753ZM5.99838 16.8315L5.61866 16.5061L5.61141 16.5149L5.99838 16.8315ZM7.41227 16.7121L7.73733 16.3319L7.72687 16.3234L7.41227 16.7121ZM8.78633 17.887L8.46139 18.267L8.80234 18.5585L9.12901 18.2511L8.78633 17.887ZM11.8332 15.0194L12.1758 15.3835L12.1775 15.3819L11.8332 15.0194ZM13.247 15.0592L12.8845 15.4036L12.8845 15.4036L13.247 15.0592ZM13.2072 16.4731L13.5498 16.8373L13.5516 16.8356L13.2072 16.4731ZM26.5893 16.7718H27.0893V16.2718H26.5893V16.7718ZM16.8714 16.7718V16.2718H16.3714V16.7718H16.8714ZM26.5893 18.7632V19.2632H27.0893V18.7632H26.5893ZM16.8714 18.7632H16.3714V19.2632H16.8714V18.7632ZM6.29709 26.3902L5.9717 26.7698L5.97238 26.7704L6.29709 26.3902ZM9.0253 28.7201L8.70059 29.1003L9.04141 29.3914L9.36787 29.0843L9.0253 28.7201ZM6.17761 24.9763L5.79788 24.6508L5.79063 24.6597L6.17761 24.9763ZM7.5915 24.8568L7.91644 24.4768L7.90702 24.4688L7.89722 24.4612L7.5915 24.8568ZM8.96555 26.0318L8.64061 26.4118L8.98157 26.7033L9.30824 26.3959L8.96555 26.0318ZM12.0124 23.1642L12.3551 23.5283L12.3568 23.5267L12.0124 23.1642ZM13.4263 23.204L13.0638 23.5484L13.0638 23.5484L13.4263 23.204ZM13.3864 24.6179L13.729 24.9821L13.7308 24.9804L13.3864 24.6179ZM26.7686 24.9166H27.2686V24.4166H26.7686V24.9166ZM17.0506 24.9166V24.4166H16.5506V24.9166H17.0506ZM26.7686 26.908V27.408H27.2686V26.908H26.7686ZM17.0506 26.908H16.5506V27.408H17.0506V26.908ZM6.05813 34.535L5.73273 34.9146L5.73342 34.9152L6.05813 34.535ZM8.78633 36.8649L8.46162 37.2451L8.80244 37.5362L9.12891 37.2291L8.78633 36.8649ZM5.93864 33.1211L5.55892 32.7956L5.55166 32.8045L5.93864 33.1211ZM7.35253 33.0016L7.02713 33.3812L7.02759 33.3816L7.35253 33.0016ZM8.72659 34.1765L8.40165 34.5565L8.7426 34.8481L9.06927 34.5406L8.72659 34.1765ZM11.7734 31.3089L12.1161 31.673L12.1178 31.6714L11.7734 31.3089ZM13.1475 32.7626L13.4901 33.1268L13.4918 33.1251L13.1475 32.7626ZM26.5296 33.0614H27.0296V32.5614H26.5296V33.0614ZM16.8116 33.0614V32.5614H16.3116V33.0614H16.8116ZM26.5296 35.0527V35.5527H27.0296V35.0527H26.5296ZM16.8116 35.0527H16.3116V35.5527H16.8116V35.0527ZM27.6846 75.4182L27.3311 75.7717L27.6871 76.1278L28.0407 75.7692L27.6846 75.4182ZM15.3977 63.1313H14.8977V63.3384L15.0442 63.4849L15.3977 63.1313ZM29.0786 74.0043L29.4346 74.3553L29.7829 74.0021L29.4324 73.6511L29.0786 74.0043ZM17.3891 62.2949H16.8891V62.5018L17.0353 62.6482L17.3891 62.2949ZM17.3891 50.7051H17.8891V50.2051H17.3891V50.7051ZM15.3977 50.7051V50.2051H14.8977V50.7051H15.3977ZM23.3832 7.21528H28.7799V6.21528H23.3832V7.21528ZM22.8832 5.71959V6.71528H23.8832V5.71959H22.8832ZM22.1685 5.00484C22.5694 5.00484 22.8832 5.31866 22.8832 5.71959H23.8832C23.8832 4.76638 23.1217 4.00484 22.1685 4.00484V5.00484ZM19.8983 5.00484H22.1685V4.00484H19.8983V5.00484ZM16.3934 1.5C18.0489 1.5 19.3983 2.84934 19.3983 4.50484H20.3983C20.3983 2.29705 18.6012 0.5 16.3934 0.5V1.5ZM13.3687 4.50484C13.3687 2.85301 14.7342 1.5 16.3934 1.5V0.5C14.1893 0.5 12.3687 2.29338 12.3687 4.50484H13.3687ZM10.5985 5.00484H12.8687V4.00484H10.5985V5.00484ZM9.88375 5.71959C9.88375 5.31866 10.1976 5.00484 10.5985 5.00484V4.00484C9.64528 4.00484 8.88375 4.76638 8.88375 5.71959H9.88375ZM9.88375 6.71528V5.71959H8.88375V6.71528H9.88375ZM4.007 7.21528H9.38375V6.21528H4.007V7.21528ZM1.5 9.72228C1.5 8.34557 2.63029 7.21528 4.007 7.21528V6.21528C2.078 6.21528 0.5 7.79329 0.5 9.72228H1.5ZM1.5 39.7126V9.72228H0.5V39.7126H1.5ZM4.007 42.2196C2.63029 42.2196 1.5 41.0893 1.5 39.7126H0.5C0.5 41.6416 2.078 43.2196 4.007 43.2196V42.2196ZM28.7799 42.2196H4.007V43.2196H28.7799V42.2196ZM31.2869 39.7126C31.2869 41.0893 30.1566 42.2196 28.7799 42.2196V43.2196C30.7089 43.2196 32.2869 41.6416 32.2869 39.7126H31.2869ZM31.2869 9.72228V39.7126H32.2869V9.72228H31.2869ZM28.7799 7.21528C30.1566 7.21528 31.2869 8.34557 31.2869 9.72228H32.2869C32.2869 7.79329 30.7089 6.21528 28.7799 6.21528V7.21528ZM18.4069 4.50484C18.4069 3.39232 17.506 2.49139 16.3934 2.49139V3.49139C16.9537 3.49139 17.4069 3.9446 17.4069 4.50484H18.4069ZM14.8601 5.00484H17.9069V4.00484H14.8601V5.00484ZM16.3934 2.49139C15.2894 2.49139 14.3601 3.38386 14.3601 4.50484H15.3601C15.3601 3.95306 15.8247 3.49139 16.3934 3.49139V2.49139ZM28.7799 41.2282C29.6136 41.2282 30.2955 40.5463 30.2955 39.7126H29.2955C29.2955 39.994 29.0613 40.2282 28.7799 40.2282V41.2282ZM4.007 41.2282H28.7799V40.2282H4.007V41.2282ZM2.49139 39.7126C2.49139 40.5463 3.17326 41.2282 4.007 41.2282V40.2282C3.72555 40.2282 3.49139 39.994 3.49139 39.7126H2.49139ZM2.49139 9.72228V39.7126H3.49139V9.72228H2.49139ZM4.007 8.20667C3.17327 8.20667 2.49139 8.88855 2.49139 9.72228H3.49139C3.49139 9.44084 3.72555 9.20667 4.007 9.20667V8.20667ZM9.38375 8.20667H4.007V9.20667H9.38375V8.20667ZM9.88375 9.62271V8.70667H8.88375V9.62271H9.88375ZM10.5985 10.3375C10.1976 10.3375 9.88375 10.0236 9.88375 9.62271H8.88375C8.88375 10.5759 9.64528 11.3375 10.5985 11.3375V10.3375ZM22.1685 10.3375H10.5985V11.3375H22.1685V10.3375ZM22.8832 9.62271C22.8832 10.0236 22.5694 10.3375 22.1685 10.3375V11.3375C23.1217 11.3375 23.8832 10.5759 23.8832 9.62271H22.8832ZM22.8832 8.70667V9.62271H23.8832V8.70667H22.8832ZM28.7799 8.20667H23.3832V9.20667H28.7799V8.20667ZM30.2955 9.72228C30.2955 8.88855 29.6136 8.20667 28.7799 8.20667V9.20667C29.0613 9.20667 29.2955 9.44084 29.2955 9.72228H30.2955ZM30.2955 39.7126V9.72228H29.2955V39.7126H30.2955ZM103.397 59.0269C101.871 59.0269 100.923 58.9472 100.819 58.9324L100.678 59.9223C100.853 59.9473 101.857 60.0269 103.397 60.0269V59.0269ZM120.22 54.9399C114.527 58.4684 107.257 59.0269 103.397 59.0269V60.0269C107.304 60.0269 114.809 59.4702 120.747 55.7899L120.22 54.9399ZM126.716 55.5022C124.64 55.5022 122.563 55.2866 120.585 54.8754L120.382 55.8544C122.426 56.2796 124.571 56.5022 126.716 56.5022V55.5022ZM153.1 32.6631C153.1 45.1872 141.325 55.5022 126.716 55.5022V56.5022C141.74 56.5022 154.1 45.8677 154.1 32.6631H153.1ZM126.716 9.824C141.325 9.824 153.1 20.1389 153.1 32.6631H154.1C154.1 19.4585 141.74 8.824 126.716 8.824V9.824ZM100.333 32.6631C100.333 20.1389 112.108 9.824 126.716 9.824V8.824C111.693 8.824 99.3326 19.4585 99.3326 32.6631H100.333ZM108.749 49.3794C103.379 45.0641 100.333 39.0093 100.333 32.6631H99.3326C99.3326 39.3405 102.539 45.6722 108.122 50.1588L108.749 49.3794ZM100.592 57.9929C106.661 54.6347 108.422 51.2789 108.906 49.9387L107.965 49.5995C107.572 50.6888 105.988 53.8647 100.108 57.1179L100.592 57.9929ZM101.238 59.3233L100.839 57.4514L99.8613 57.6595L100.26 59.5314L101.238 59.3233ZM126.716 10.8353C112.794 10.8353 101.324 20.5684 101.324 32.683H102.324C102.324 21.2594 113.197 11.8353 126.716 11.8353V10.8353ZM127.05 11.7088L127.07 11.6889L126.363 10.9818L126.343 11.0017L127.05 11.7088ZM152.089 32.7029C152.089 20.5883 140.618 10.8552 126.696 10.8552V11.8552C140.216 11.8552 151.089 21.2793 151.089 32.7029H152.089ZM126.696 54.5506C140.618 54.5506 152.089 44.8175 152.089 32.7029H151.089C151.089 44.1265 140.216 53.5506 126.696 53.5506V54.5506ZM120.387 53.8398C122.421 54.3281 124.552 54.5506 126.696 54.5506V53.5506C124.62 53.5506 122.568 53.335 120.62 52.8674L120.387 53.8398ZM120.264 53.8536H120.503V52.8536H120.264V53.8536ZM119.869 53.9923L120.406 53.833L120.122 52.8742L119.585 53.0335L119.869 53.9923ZM104.204 58.0354C108.13 57.9553 114.879 57.2571 119.999 53.9323L119.454 53.0936C114.577 56.2606 108.064 56.9564 104.184 57.0356L104.204 58.0354ZM110.071 49.3446C110.009 49.805 109.387 53.2648 103.906 57.1268L104.482 57.9442C110.192 53.9203 110.964 50.2112 111.062 49.4767L110.071 49.3446ZM109.721 48.8377L110.119 49.6343L111.013 49.187L110.615 48.3905L109.721 48.8377ZM101.324 32.683C101.324 38.9294 104.457 44.8851 109.865 49.0116L110.471 48.2166C105.284 44.258 102.324 38.5841 102.324 32.683H101.324ZM70.141 69.8843H76.3143V68.8843H70.141V69.8843ZM69.641 64.7244V69.3843H70.641V64.7244H69.641ZM77.3369 56.332C76.0688 59.8865 73.3787 62.7682 69.9413 64.2661L70.3408 65.1828C74.0325 63.5741 76.9182 60.4816 78.2788 56.668L77.3369 56.332ZM78.6442 56.0797C78.3887 56.0797 78.147 56.0613 77.9126 56.0111L77.7031 56.9889C78.0263 57.0582 78.3422 57.0797 78.6442 57.0797V56.0797ZM84.0587 50.6652C84.0587 53.655 81.634 56.0797 78.6442 56.0797V57.0797C82.1863 57.0797 85.0587 54.2073 85.0587 50.6652H84.0587ZM78.6442 45.2309C81.6318 45.2309 84.0587 47.6733 84.0587 50.6652H85.0587C85.0587 47.1254 82.1884 44.2309 78.6442 44.2309V45.2309ZM78.1442 43.6954V44.7309H79.1442V43.6954H78.1442ZM79.7561 42.1975C79.3571 42.669 78.9153 43.0183 78.4337 43.2419L78.8548 44.1489C79.4884 43.8547 80.0423 43.4074 80.5195 42.8434L79.7561 42.1975ZM81.5201 29.8924C81.5699 30.3044 81.8441 32.5709 81.7374 35.1602C81.684 36.4549 81.5359 37.8165 81.2228 39.06C80.9085 40.308 80.4364 41.403 79.758 42.1952L80.5176 42.8457C81.3349 41.8912 81.8582 40.6317 82.1925 39.3042C82.5279 37.9722 82.6815 36.5373 82.7365 35.2014C82.8467 32.5295 82.5644 30.1986 82.5128 29.7723L81.5201 29.8924ZM81.5164 29.8323V29.8324H82.5164V29.8323H81.5164ZM81.5132 29.8347L81.52 29.8915L82.5129 29.7731L82.5062 29.7164L81.5132 29.8347ZM75.2465 25.1376C79.7742 25.2499 81.3021 28.305 81.5144 29.8439L82.505 29.7072C82.2393 27.7811 80.3819 24.2646 75.2713 24.1379L75.2465 25.1376ZM40.8171 25.1352C45.1457 25.1169 70.4807 25.0098 75.2455 25.1376L75.2723 24.138C70.4871 24.0096 45.1271 24.117 40.8129 24.1352L40.8171 25.1352ZM40.1926 25.1378L40.817 25.1352L40.813 24.1352L40.1885 24.1378L40.1926 25.1378ZM39.9567 26.5389L40.6536 24.8263L39.7274 24.4493L39.0304 26.1619L39.9567 26.5389ZM43.644 29.6544L39.8404 25.9903L39.1466 26.7105L42.9502 30.3746L43.644 29.6544ZM41.6525 35.6513L43.7634 30.1949L42.8308 29.8341L40.7199 35.2905L41.6525 35.6513ZM41.6862 36.1281V35.4709H40.6862V36.1281H41.6862ZM48.3135 43.5435C46.1179 43.1063 44.4827 41.3546 43.3617 39.5755C42.2497 37.8108 41.7075 36.1198 41.6635 35.979L40.709 36.2772C40.7645 36.455 41.3375 38.239 42.5156 40.1086C43.6846 41.9638 45.5145 44.0057 48.1182 44.5243L48.3135 43.5435ZM48.7158 44.7707V44.0339H47.7158V44.7707H48.7158ZM43.359 50.6652C43.359 47.8372 45.4919 45.5237 48.2617 45.2686L48.17 44.2728C44.886 44.5753 42.359 47.32 42.359 50.6652H43.359ZM48.7933 56.0797C45.7826 56.0797 43.359 53.6539 43.359 50.6652H42.359C42.359 54.2083 45.2325 57.0797 48.7933 57.0797V56.0797ZM48.9509 56.0747C48.9552 56.0736 48.9461 56.0762 48.9139 56.0779C48.8821 56.0795 48.8458 56.0797 48.7933 56.0797V57.0797C48.8735 57.0797 49.0415 57.0828 49.1934 57.0448L48.9509 56.0747ZM56.4383 64.035C53.2497 62.4984 50.7524 59.7512 49.5426 56.3904L48.6017 56.7291C49.9009 60.3382 52.5813 63.2863 56.0041 64.9359L56.4383 64.035ZM56.7212 69.3843V64.4855H55.7212V69.3843H56.7212ZM50.1475 69.8843H56.2212V68.8843H50.1475V69.8843ZM37.7234 82.3084C37.7234 75.436 43.2939 69.8843 50.1475 69.8843V68.8843C42.7427 68.8843 36.7234 74.8827 36.7234 82.3084H37.7234ZM37.7234 112V82.3084H36.7234V112H37.7234ZM89.2384 111.5H37.2234V112.5H89.2384V111.5ZM88.7384 82.3084V112H89.7384V82.3084H88.7384ZM76.3143 69.8843C83.1678 69.8843 88.7384 75.436 88.7384 82.3084H89.7384C89.7384 74.8827 83.7191 68.8843 76.3143 68.8843V69.8843ZM62.4144 65.4193C60.9915 65.4193 59.648 65.2079 58.3621 64.8049L58.0631 65.7591C59.4457 66.1925 60.8901 66.4193 62.4144 66.4193V65.4193ZM64.4456 65.4193H62.4144V66.4193H64.4456V65.4193ZM68.0112 64.9211C66.8817 65.2465 65.6737 65.4193 64.4456 65.4193V66.4193C65.7665 66.4193 67.0677 66.2336 68.2881 65.882L68.0112 64.9211ZM68.6496 69.3644V65.4015H67.6496V69.3644H68.6496ZM58.2126 69.8644H68.1496V68.8644H58.2126V69.8644ZM57.7126 65.282V69.3644H58.7126V65.282H57.7126ZM78.6442 55.0883C81.0926 55.0883 83.0673 53.0904 83.0673 50.6652H82.0673C82.0673 52.5414 80.5371 54.0883 78.6442 54.0883V55.0883ZM78.2475 55.0586C78.4035 55.0898 78.5524 55.0883 78.6442 55.0883V54.0883C78.5369 54.0883 78.4867 54.0867 78.4436 54.0781L78.2475 55.0586ZM78.1442 51.7207C78.1442 52.6626 78.0481 53.5827 77.8569 54.4621L78.8341 54.6746C79.0412 53.7219 79.1442 52.7303 79.1442 51.7207H78.1442ZM78.1442 46.7223V51.7207H79.1442V46.7223H78.1442ZM83.0673 50.6652C83.0673 48.2218 81.0943 46.2223 78.6442 46.2223V47.2223C80.5354 47.2223 82.0673 48.7675 82.0673 50.6652H83.0673ZM48.1429 46.2675C46.0095 46.5818 44.3504 48.442 44.3504 50.6652H45.3504C45.3504 48.9455 46.6385 47.5 48.2887 47.2568L48.1429 46.2675ZM48.7158 51.7207V46.7621H47.7158V51.7207H48.7158ZM49.0031 54.4621C48.8119 53.5827 48.7158 52.6626 48.7158 51.7207H47.7158C47.7158 52.7303 47.8188 53.7219 48.0259 54.6746L49.0031 54.4621ZM44.3504 50.6652C44.3504 52.982 46.1697 54.9102 48.4806 55.0672L48.5484 54.0695C46.7571 53.9478 45.3504 52.4508 45.3504 50.6652H44.3504ZM48.0667 42.4401C48.4244 42.5519 48.7937 42.6222 49.2115 42.6222V41.6222C48.9125 41.6222 48.6445 41.573 48.365 41.4856L48.0667 42.4401ZM42.7066 36.017C42.9221 36.6227 43.4556 37.9785 44.3228 39.2999C45.1816 40.6084 46.4209 41.9653 48.0772 42.4433L48.3545 41.4825C47.0436 41.1042 45.9729 39.9917 45.1589 38.7512C44.3533 37.5237 43.8513 36.2509 43.6487 35.6816L42.7066 36.017ZM44.9217 29.9537L42.7113 35.6689L43.6439 36.0297L45.8544 30.3144L44.9217 29.9537ZM44.6791 29.1585L44.8981 30.2338L45.878 30.0342L45.6589 28.9589L44.6791 29.1585ZM42.2921 26.9684L44.8211 29.4178L45.5169 28.6995L42.9878 26.2501L42.2921 26.9684ZM45.327 26.1013C44.3028 26.1044 43.395 26.1072 42.6386 26.1093L42.6413 27.1093C43.3979 27.1072 44.3059 27.1044 45.33 27.1013L45.327 26.1013ZM45.3415 26.1013L45.327 26.1013L45.3301 27.1013L45.3447 27.1013L45.3415 26.1013ZM45.3786 26.1012L45.3416 26.1013L45.3446 27.1013L45.3816 27.1012L45.3786 26.1012ZM45.4174 26.1011L45.3786 26.1012L45.3816 27.1012L45.4205 27.1011L45.4174 26.1011ZM45.4241 26.101L45.4173 26.1011L45.4206 27.1011L45.4275 27.101L45.4241 26.101ZM75.2131 26.1294C71.3836 26.0225 54.2094 26.0745 45.4243 26.101L45.4273 27.101C54.2266 27.0744 71.3761 27.0227 75.1852 27.129L75.2131 26.1294ZM80.5306 29.9476C80.4948 29.7444 80.3198 28.8151 79.561 27.9191C78.7872 27.0053 77.4536 26.1822 75.2109 26.1293L75.1873 27.129C77.1664 27.1757 78.2225 27.886 78.7979 28.5653C79.3882 29.2624 79.5219 29.9859 79.5458 30.1213L80.5306 29.9476ZM79.0289 41.5455C79.609 40.8471 79.9951 39.9011 80.254 38.8806C80.5145 37.8538 80.6557 36.7131 80.7216 35.5924C80.8532 33.3519 80.6865 31.1392 80.534 29.9698L79.5424 30.0991C79.6886 31.2198 79.8505 33.3682 79.7233 35.5337C79.6597 36.616 79.5246 37.6894 79.2847 38.6347C79.0433 39.5863 78.7051 40.3703 78.2596 40.9066L79.0289 41.5455ZM78.6243 41.7261H78.6442V40.7261H78.6243V41.7261ZM77.8298 42.409C78.2788 42.2343 78.6605 41.9408 78.9992 41.5569L78.2494 40.8952C77.9907 41.1884 77.7352 41.3728 77.4673 41.4769L77.8298 42.409ZM76.7126 42.6421C77.1295 42.6421 77.515 42.5442 77.8455 42.4025L77.4516 41.4834C77.2245 41.5807 76.9728 41.6421 76.7126 41.6421V42.6421ZM76.6529 42.6421H76.7126V41.6421H76.6529V42.6421ZM72.9826 41.3494C73.9042 42.2259 75.1343 42.7067 76.674 42.6416L76.6317 41.6425C75.3436 41.697 74.3832 41.3015 73.6718 40.6248L72.9826 41.3494ZM71.2582 37.5668C71.3824 38.519 71.7812 40.1924 72.9804 41.3472L73.6741 40.6269C72.7226 39.7107 72.3646 38.3174 72.2498 37.4375L71.2582 37.5668ZM71.1744 36.6658C71.1744 36.7047 71.1754 37.0507 71.2603 37.5811L72.2477 37.4232C72.1733 36.9579 72.1744 36.6667 72.1744 36.6658H71.1744ZM70.7622 36.9972L71.5786 37.1565L71.7701 36.175L70.9537 36.0157L70.7622 36.9972ZM69.6464 36.778L70.7615 36.9971L70.9543 36.0158L69.8391 35.7968L69.6464 36.778ZM70.0904 36.73C70.1157 36.6793 70.1445 36.6157 70.1648 36.5701C70.1754 36.5462 70.1847 36.525 70.1913 36.5098C70.1946 36.5022 70.1973 36.496 70.1992 36.4916C70.2001 36.4894 70.2009 36.4877 70.2014 36.4865C70.2017 36.4859 70.2019 36.4854 70.202 36.485C70.2021 36.4849 70.2022 36.4847 70.2022 36.4846C70.2022 36.4845 70.2023 36.4845 70.2023 36.4845C70.2023 36.4844 70.2023 36.4844 70.2023 36.4844C70.2023 36.4844 70.2023 36.4844 70.2023 36.4844C70.2023 36.4844 70.2023 36.4844 69.7427 36.2874C69.2832 36.0904 69.2832 36.0904 69.2832 36.0904C69.2832 36.0904 69.2832 36.0904 69.2832 36.0904C69.2832 36.0904 69.2832 36.0904 69.2832 36.0904C69.2832 36.0904 69.2832 36.0904 69.2832 36.0904C69.2832 36.0904 69.2831 36.0905 69.2831 36.0906C69.283 36.0908 69.2829 36.0911 69.2827 36.0915C69.2823 36.0924 69.2818 36.0937 69.281 36.0955C69.2794 36.0991 69.2772 36.1044 69.2742 36.1111C69.2684 36.1244 69.2603 36.1431 69.251 36.164C69.2314 36.208 69.2104 36.2539 69.1959 36.2829L70.0904 36.73ZM69.5494 37.7672C69.756 37.4365 69.9536 37.0878 70.1092 36.6877L69.1772 36.3252C69.054 36.642 68.893 36.9305 68.7014 37.2371L69.5494 37.7672ZM53.4497 42.7045C56.1423 42.8135 59.3526 42.9457 62.2759 42.3813C65.2092 41.815 67.9304 40.5324 69.5569 37.7548L68.6939 37.2495C67.268 39.6846 64.8656 40.8629 62.0863 41.3994C59.297 41.938 56.2056 41.8152 53.4901 41.7053L53.4497 42.7045ZM53.3732 42.7014L53.4497 42.7045L53.4901 41.7053L53.4136 41.7022L53.3732 42.7014ZM53.0748 42.6896L53.3737 42.7014L53.4131 41.7022L53.1142 41.6904L53.0748 42.6896ZM50.6453 42.6222C51.369 42.6222 52.1748 42.654 53.0747 42.6896L53.1143 41.6904C52.2197 41.655 51.3927 41.6222 50.6453 41.6222V42.6222ZM50.2072 42.6222H50.6453V41.6222H50.2072V42.6222ZM49.6496 42.6421C49.8268 42.6421 50.0296 42.6424 50.257 42.6197L50.1575 41.6247C49.9865 41.6417 49.8309 41.6421 49.6496 41.6421V42.6421ZM49.0741 42.6029C49.3032 42.6684 49.5172 42.6625 49.7116 42.6382L49.5876 41.646C49.4634 41.6615 49.3986 41.6556 49.3489 41.6414L49.0741 42.6029ZM50.2383 55.3002C50.3268 55.6767 50.458 56.0238 50.5794 56.3272L51.5078 55.9559C51.3903 55.6619 51.2824 55.3718 51.2117 55.0712L50.2383 55.3002ZM49.9737 54.2968C50.0399 54.672 50.1496 55.0207 50.2477 55.3348L51.2022 55.0365C51.1012 54.7134 51.0118 54.4249 50.9585 54.123L49.9737 54.2968ZM49.7072 51.7207C49.7072 52.6075 49.7897 53.4813 49.9783 54.3197L50.9539 54.1001C50.7841 53.3454 50.7072 52.5465 50.7072 51.7207H49.7072ZM49.7072 44.1136V51.7207H50.7072V44.1136H49.7072ZM53.3392 43.6939C52.1548 43.6336 51.0909 43.6136 50.2072 43.6136V44.6136C51.076 44.6136 52.1229 44.6333 53.2884 44.6926L53.3392 43.6939ZM57.0178 43.7928C55.7134 43.7928 54.4676 43.7533 53.3401 43.6939L53.2875 44.6925C54.4301 44.7527 55.6935 44.7928 57.0178 44.7928V43.7928ZM69.8019 39.2318C66.8747 43.1033 61.7349 43.7928 57.0178 43.7928V44.7928C61.7398 44.7928 67.3535 44.1281 70.5996 39.8349L69.8019 39.2318ZM72.2827 42.0434C71.4792 41.2581 70.9766 40.2799 70.6751 39.3753L69.7264 39.6915C70.0621 40.6986 70.6349 41.8312 71.5838 42.7586L72.2827 42.0434ZM76.6477 43.6335C74.8272 43.6523 73.3874 43.1118 72.2809 42.0416L71.5856 42.7604C72.9086 44.04 74.6153 44.6545 76.658 44.6334L76.6477 43.6335ZM77.1529 51.7207V44.1335H76.1529V51.7207H77.1529ZM76.9212 54.0226C77.0913 53.2786 77.1529 52.5023 77.1529 51.7207H76.1529C76.1529 52.4525 76.0949 53.1498 75.9464 53.7998L76.9212 54.0226ZM76.663 55.1024C76.7979 54.7427 76.8866 54.3636 76.9307 53.9664L75.9369 53.856C75.9013 54.1757 75.8308 54.4736 75.7267 54.7512L76.663 55.1024ZM76.3542 56.103C76.5081 55.7511 76.62 55.3945 76.6872 55.0137L75.7024 54.8399C75.6502 55.1362 75.5629 55.4168 75.438 55.7022L76.3542 56.103ZM70.3765 62.9551C73.1317 61.4842 75.2876 59.0392 76.366 56.0735L75.4262 55.7317C74.4336 58.4613 72.4474 60.716 69.9055 62.0729L70.3765 62.9551ZM68.7911 63.6436C69.3296 63.4573 69.873 63.2278 70.3792 62.9536L69.9029 62.0743C69.4531 62.318 68.9611 62.5266 68.464 62.6987L68.7911 63.6436ZM64.4456 64.4279C65.9779 64.4279 67.4528 64.1587 68.807 63.6378L68.4481 62.7045C67.2135 63.1793 65.8607 63.4279 64.4456 63.4279V64.4279ZM62.4144 64.4279H64.4456V63.4279H62.4144V64.4279ZM58.053 63.6378C59.4072 64.1587 60.8822 64.4279 62.4144 64.4279V63.4279C60.9994 63.4279 59.6466 63.1793 58.412 62.7045L58.053 63.6378ZM55.9562 62.6393C56.6238 63.0565 57.3166 63.3929 58.0744 63.6455L58.3906 62.6968C57.7146 62.4715 57.0931 62.1706 56.4862 61.7913L55.9562 62.6393ZM50.5774 56.3222C51.6143 58.9974 53.5222 61.2163 55.9688 62.6469L56.4736 61.7837C54.2205 60.4662 52.4643 58.4235 51.5098 55.9608L50.5774 56.3222ZM39.2147 110.509H87.247V109.509H39.2147V110.509ZM38.7147 82.3084V110.009H39.7147V82.3084H38.7147ZM50.1475 70.8757C43.8579 70.8757 38.7147 75.9978 38.7147 82.3084H39.7147C39.7147 76.5512 44.409 71.8757 50.1475 71.8757V70.8757ZM76.3143 70.8757H50.1475V71.8757H76.3143V70.8757ZM87.747 82.3084C87.747 75.9978 82.6039 70.8757 76.3143 70.8757V71.8757C82.0528 71.8757 86.747 76.5512 86.747 82.3084H87.747ZM87.747 110.009V82.3084H86.747V110.009H87.747ZM125.422 38.5597H127.413V37.5597H125.422V38.5597ZM124.922 34.0969V38.0597H125.922V34.0969H124.922ZM126.446 32.7536L125.132 33.6896L125.712 34.5042L127.026 33.5682L126.446 32.7536ZM129.91 32.3163C129.298 32.7548 128.558 32.8585 127.933 32.8379C127.624 32.8278 127.357 32.7877 127.167 32.7503C127.073 32.7317 126.999 32.7139 126.95 32.7013C126.925 32.695 126.907 32.69 126.896 32.6868C126.891 32.6852 126.887 32.6841 126.885 32.6835C126.884 32.6832 126.883 32.683 126.883 32.683C126.883 32.683 126.883 32.683 126.883 32.6831C126.883 32.6831 126.884 32.6831 126.884 32.6832C126.884 32.6832 126.884 32.6832 126.884 32.6833C126.884 32.6833 126.884 32.6833 126.736 33.1609C126.588 33.6385 126.588 33.6386 126.589 33.6386C126.589 33.6386 126.589 33.6387 126.589 33.6387C126.589 33.6388 126.59 33.6389 126.59 33.639C126.591 33.6392 126.591 33.6395 126.592 33.6397C126.594 33.6403 126.596 33.641 126.599 33.6419C126.605 33.6435 126.612 33.6457 126.622 33.6484C126.641 33.6538 126.667 33.661 126.7 33.6695C126.765 33.6865 126.858 33.7087 126.974 33.7314C127.204 33.7768 127.526 33.8251 127.9 33.8374C128.639 33.8617 129.631 33.7463 130.492 33.1293L129.91 32.3163ZM131.494 27.4656C131.494 30.0534 130.88 31.6096 129.907 32.3187L130.496 33.1269C131.873 32.1234 132.494 30.135 132.494 27.4656H131.494ZM130.103 23.9984C130.984 24.5858 131.494 25.6616 131.494 27.4656H132.494C132.494 25.4858 131.927 24.0127 130.658 23.1663L130.103 23.9984ZM121.08 24.8178C121.947 24.4424 123.645 23.8487 125.429 23.5529C127.245 23.2518 129.004 23.2854 130.108 24.0019L130.653 23.1628C129.209 22.2265 127.113 22.26 125.266 22.5663C123.386 22.8779 121.609 23.4989 120.683 23.9002L121.08 24.8178ZM119.627 22.7263L120.423 24.5583L121.34 24.1596L120.544 22.3275L119.627 22.7263ZM131.749 21.491C129.592 20.0819 126.645 20.24 124.309 20.7048C121.945 21.1751 120.049 21.992 119.874 22.0738L120.296 22.98C120.42 22.9224 122.238 22.1363 124.504 21.6856C126.797 21.2293 129.396 21.1484 131.202 22.3282L131.749 21.491ZM134.505 27.4456C134.505 24.7411 133.603 22.7046 131.75 21.4913L131.202 22.3279C132.694 23.3051 133.505 24.9726 133.505 27.4456H134.505ZM131.667 34.7424C133.611 33.3507 134.505 30.8202 134.505 27.4456H133.505C133.505 30.6825 132.646 32.8119 131.085 33.9293L131.667 34.7424ZM127.406 35.7895C128.52 35.8945 130.197 35.8179 131.671 34.7394L131.081 33.9323C129.887 34.8054 128.498 34.888 127.5 34.7939L127.406 35.7895ZM127.953 38.0597V35.2917H126.953V38.0597H127.953ZM127.413 38.5597H127.453V37.5597H127.413V38.5597ZM127.413 40.1685H125.422V41.1685H127.413V40.1685ZM127.913 43.8348V40.6685H126.913V43.8348H127.913ZM125.422 44.3348H127.413V43.3348H125.422V44.3348ZM124.922 40.6685V43.8348H125.922V40.6685H124.922ZM5.79316 18.6256L8.52136 20.9556L9.17078 20.1951L6.44258 17.8652L5.79316 18.6256ZM5.61141 16.5149C5.08104 17.1631 5.16785 18.0897 5.79247 18.6251L6.44326 17.8658C6.2315 17.6843 6.19883 17.3761 6.38536 17.1482L5.61141 16.5149ZM7.72687 16.3234C7.10799 15.8224 6.16136 15.8731 5.61876 16.5061L6.37801 17.1569C6.55231 16.9536 6.88017 16.9246 7.09767 17.1007L7.72687 16.3234ZM9.11127 17.507L7.73721 16.332L7.08733 17.0921L8.46139 18.267L9.11127 17.507ZM11.4905 14.6553L8.44365 17.5229L9.12901 18.2511L12.1758 15.3835L11.4905 14.6553ZM13.6095 14.7148C13.0432 14.1187 12.0896 14.0861 11.4888 14.6569L12.1775 15.3819C12.3732 15.196 12.6941 15.2031 12.8845 15.4036L13.6095 14.7148ZM13.5516 16.8356C14.1477 16.2693 14.1804 15.3157 13.6095 14.7148L12.8845 15.4036C13.0705 15.5993 13.0633 15.9202 12.8628 16.1106L13.5516 16.8356ZM9.18865 20.9395L13.5498 16.8373L12.8646 16.1089L8.50349 20.2112L9.18865 20.9395ZM26.5893 16.2718H16.8714V17.2718H26.5893V16.2718ZM27.0893 18.7632V16.7718H26.0893V18.7632H27.0893ZM16.8714 19.2632H26.5893V18.2632H16.8714V19.2632ZM16.3714 16.7718V18.7632H17.3714V16.7718H16.3714ZM5.97238 26.7704L8.70059 29.1003L9.35001 28.3399L6.6218 26.01L5.97238 26.7704ZM5.79063 24.6597C5.26027 25.3079 5.34708 26.2344 5.9717 26.7698L6.62249 26.0106C6.41072 25.8291 6.37805 25.5209 6.56459 25.2929L5.79063 24.6597ZM7.89722 24.4612C7.26599 23.9734 6.34384 24.0141 5.79798 24.6509L6.55724 25.3017C6.72829 25.1022 7.04079 25.0632 7.28577 25.2525L7.89722 24.4612ZM9.2905 25.6517L7.91644 24.4768L7.26655 25.2368L8.64061 26.4118L9.2905 25.6517ZM11.6697 22.8001L8.62287 25.6677L9.30824 26.3959L12.3551 23.5283L11.6697 22.8001ZM13.7888 22.8596C13.2225 22.2635 12.2689 22.2308 11.668 22.8017L12.3568 23.5267C12.5525 23.3407 12.8733 23.3479 13.0638 23.5484L13.7888 22.8596ZM13.7308 24.9804C14.3269 24.4141 14.3596 23.4605 13.7888 22.8596L13.0638 23.5484C13.2497 23.7441 13.2425 24.0649 13.0421 24.2554L13.7308 24.9804ZM9.36787 29.0843L13.729 24.9821L13.0439 24.2537L8.68272 28.3559L9.36787 29.0843ZM26.7686 24.4166H17.0506V25.4166H26.7686V24.4166ZM27.2686 26.908V24.9166H26.2686V26.908H27.2686ZM17.0506 27.408H26.7686V26.408H17.0506V27.408ZM16.5506 24.9166V26.908H17.5506V24.9166H16.5506ZM5.73342 34.9152L8.46162 37.2451L9.11104 36.4847L6.38284 34.1548L5.73342 34.9152ZM5.55166 32.8045C5.0213 33.4527 5.10811 34.3792 5.73273 34.9146L6.38352 34.1554C6.17176 33.9738 6.13908 33.6657 6.32562 33.4377L5.55166 32.8045ZM7.67792 32.622C7.04268 32.0775 6.09077 32.1753 5.55902 32.7957L6.31827 33.4465C6.50342 33.2305 6.826 33.2088 7.02713 33.3812L7.67792 32.622ZM9.05153 33.7965L7.67747 32.6216L7.02759 33.3816L8.40165 34.5565L9.05153 33.7965ZM11.4307 30.9448L8.38391 33.8124L9.06927 34.5406L12.1161 31.673L11.4307 30.9448ZM13.5498 31.0044C12.9835 30.4083 12.0299 30.3756 11.429 30.9464L12.1178 31.6714C12.3135 31.4855 12.6344 31.4927 12.8248 31.6931L13.5498 31.0044ZM13.4918 33.1251C14.0879 32.5589 14.1206 31.6052 13.5498 31.0044L12.8248 31.6931C13.0107 31.8888 13.0036 32.2097 12.8031 32.4001L13.4918 33.1251ZM9.12891 37.2291L13.49 33.1268L12.8049 32.3984L8.44375 36.5007L9.12891 37.2291ZM26.5296 32.5614H16.8116V33.5614H26.5296V32.5614ZM27.0296 35.0527V33.0614H26.0296V35.0527H27.0296ZM16.8116 35.5527H26.5296V34.5527H16.8116V35.5527ZM16.3116 33.0614V35.0527H17.3116V33.0614H16.3116ZM28.0382 75.0646L15.7513 62.7778L15.0442 63.4849L27.3311 75.7717L28.0382 75.0646ZM28.7225 73.6533L27.3286 75.0671L28.0407 75.7692L29.4346 74.3553L28.7225 73.6533ZM17.0353 62.6482L28.7247 74.3576L29.4324 73.6511L17.743 61.9417L17.0353 62.6482ZM16.8891 50.7051V62.2949H17.8891V50.7051H16.8891ZM15.3977 51.2051H17.3891V50.2051H15.3977V51.2051ZM15.8977 63.1313V50.7051H14.8977V63.1313H15.8977Z" fill="#3875F6" mask="url(#path-1-outside-1_572_127)"/>
</svg>
